<svg width="310" height="333" viewBox="0 0 310 333" fill="none" xmlns="http://www.w3.org/2000/svg">
<path d="M104.694 131.591C89.2606 150.374 79.065 172.465 69.2178 194.448C66.9263 199.564 64.6031 204.879 64.5926 210.507C64.582 216.129 67.5493 222.173 72.8029 223.835C76.9319 225.141 81.5202 223.468 84.8307 220.624C88.1412 217.786 90.4275 213.922 92.6451 210.134C98.4002 200.325 104.155 190.509 109.911 180.7C105.75 163.503 103.849 147.477 104.689 131.596L104.694 131.591Z" fill="#EE6E40"/>
<path d="M53.531 108.647C42.5381 116.963 31.5452 125.278 20.547 133.588C17.2575 136.075 13.8572 138.692 11.9459 142.394C8.67231 148.739 10.5678 156.456 12.5267 163.341C13.4929 166.735 14.8552 170.582 18.1076 171.802C21.3337 173.01 24.7921 171.014 27.6169 169.007C43.3406 157.848 57.2058 143.969 68.4575 128.143C62.301 123.276 57.4329 116.736 53.531 108.642V108.647Z" fill="#EE6E40"/>
<path d="M71.1503 58.2656C55.9281 56.744 40.6162 58.9833 25.4785 61.2226C20.6315 61.9403 15.7158 62.6741 11.2279 64.6814C6.73989 66.6887 2.65847 70.1583 0.968879 74.8636C-0.578154 79.1803 0.039603 83.9557 0.68376 88.5099C0.947759 90.3823 1.32792 92.4597 2.83271 93.5659C4.6543 94.9041 7.17813 94.1595 9.28484 93.3663C18.2502 89.9884 27.2209 86.6159 36.0226 84.2255C45.5794 72.921 57.9081 64.0824 71.1503 58.2656Z" fill="#EE6E40"/>
<path d="M24.5281 32.9802C50.6323 34.9389 76.3405 42.2936 99.6463 54.4723C98.8279 48.213 97.3707 43.1516 95.9081 38.0956C78.1146 23.5373 54.5078 15.0387 30.6635 14.4829C28.694 14.4343 26.6401 14.4613 24.8713 15.357C21.4605 17.0891 20.2566 21.3627 19.4065 25.1615C18.9208 27.3414 18.5406 29.9477 20.0771 31.5395C21.1965 32.6996 22.9389 32.8669 24.5281 32.9856V32.9802Z" fill="#EE6E40"/>
<path d="M281.658 24.7784C283.902 24.7784 286.336 24.7892 288.126 23.4078C290.19 21.8106 290.702 18.913 291.061 16.2905C291.478 13.2202 291.753 9.66431 289.62 7.46277C288.083 5.87635 285.744 5.50403 283.569 5.2774C259.857 2.80606 235.458 7.75415 214.459 19.2853C216.941 30.6114 218.673 39.5201 219.238 48.499C236.429 33.4011 258.985 24.8269 281.658 24.7784Z" fill="#EE6E40"/>
<path d="M222.184 69.2248C239.275 76.4392 258.008 78.576 272.196 77.3727C281.325 76.5957 290.449 75.8241 299.578 75.047C301.304 74.9013 303.131 74.7179 304.52 73.6495C307.123 71.6476 306.949 67.6654 306.516 64.363C306.04 60.7316 305.343 56.6954 302.455 54.5262C300.602 53.1287 298.194 52.8103 295.898 52.5945C270.406 50.2095 244.265 55.6756 222.179 69.2194L222.184 69.2248Z" fill="#EE6E40"/>
<path d="M309.874 150.083C309.256 146.365 306.331 143.548 303.49 141.142C288.807 128.704 271.763 119.186 253.589 113.283C245.791 117.745 241.741 121.058 237.691 124.371C253.188 135.066 266.889 148.475 278.025 163.832C281.578 168.731 285.707 174.332 291.658 174.688C295.475 174.92 299.134 172.778 301.706 169.881C304.277 166.988 305.94 163.389 307.566 159.855C308.981 156.774 310.433 153.445 309.879 150.088L309.874 150.083Z" fill="#EE6E40"/>
<path d="M223.25 126.254C215.505 124.312 206.661 124.641 197.812 124.97C214.01 153.062 227.532 183.192 233.43 215.239C234.196 219.394 235.157 224.094 238.7 226.285C241.054 227.747 244.085 227.682 246.694 226.765C249.302 225.847 251.572 224.169 253.785 222.486C258.278 219.07 262.924 215.217 264.63 209.768C266.356 204.258 264.698 198.274 262.718 192.857C253.8 168.456 238.43 147.175 223.25 126.254Z" fill="#EE6E40"/>
<path d="M180.699 152.42C174.622 159.661 168.687 169.007 164.041 178.984C166.76 194.281 168.772 209.789 169.453 225.362C169.654 229.878 170.108 235.118 173.788 237.622C176.903 239.737 181.032 238.949 184.659 238.026C188.778 236.974 193.123 235.701 195.943 232.463C200.388 227.364 199.422 219.551 198.012 212.876C193.677 192.339 187.711 172.18 180.694 152.43L180.699 152.42Z" fill="#EE6E40"/>
<path d="M299.314 283.185C297.112 282.381 294.741 283.562 292.666 284.668C260.685 301.682 223.683 307.31 187.7 305.011C164.257 303.516 141.163 298.79 118.543 292.19C132.313 285.456 145.181 276.202 153.053 262.955C166.612 240.13 162.531 210.685 153.85 185.496C152.958 190.617 152.066 195.738 150.022 201.555C155.176 230.078 140.255 260.036 117.007 276.672C111.627 280.519 105.882 283.713 99.8786 286.303C94.1129 284.361 88.3841 282.321 82.687 280.201C66.2557 274.082 49.2648 267.196 31.8672 269.031C27.2684 269.517 22.6167 270.666 18.8204 273.359C15.0241 276.057 12.2099 280.519 12.3577 285.24C12.6112 293.469 20.9852 298.736 28.6201 301.369C52.6651 309.668 79.1758 307.218 103.268 298.617C156.395 314.066 213.409 314.567 268.41 307.153C279.361 305.675 291.072 303.5 298.854 295.487C300.549 293.744 302.054 291.645 302.397 289.217C302.735 286.784 301.584 284.01 299.319 283.185H299.314ZM35.5527 293.793C32.712 293.388 29.3698 292.476 28.4669 289.692C27.3159 286.147 31.1333 283.001 34.6128 281.852C48.2668 277.325 62.7709 283.87 76.124 289.255C78.4049 290.178 80.6964 291.057 82.9985 291.915C67.5915 295.622 51.2659 296.043 35.5579 293.793H35.5527Z" fill="#70804D"/>
<path d="M106.679 118.182C100.058 119.051 93.9333 122.1 87.8983 125.013C81.8633 127.927 75.6224 130.798 68.9643 131.267C62.3063 131.737 55.0569 129.33 51.3979 123.621C48.2193 118.662 48.2352 112.193 45.4843 106.98C43.0925 102.448 38.8579 99.3071 35.3151 95.6487C31.7722 91.9902 28.694 87.0529 29.6444 81.9916C30.674 76.4931 35.9328 73.0829 40.7006 70.3363C46.4347 67.034 52.1635 63.7263 57.8975 60.424C63.2356 57.3483 68.7584 54.2078 74.8515 53.4848C85.8444 52.1898 96.1298 58.9725 105.46 66.257C100.95 61.2172 96.3621 56.0586 93.6271 49.8263C90.8921 43.594 90.2796 35.9857 93.701 30.1149C95.5173 26.9961 98.3316 24.5787 100.148 21.4598C101.811 18.6054 102.561 15.3085 103.897 12.2813C105.232 9.25421 107.424 6.30802 110.576 5.50402C113.881 4.65686 117.302 6.39975 119.985 8.54734C122.667 10.7003 125.038 13.3443 128.132 14.812C130.983 16.1664 134.22 16.3984 137.192 17.456C143.834 19.8303 148.512 26.1975 150.746 33.018C152.979 39.8384 153.132 47.1607 154.679 53.679C157.124 47.7165 159.595 41.7 163.27 36.439C166.94 31.1779 171.961 26.6561 178.033 24.8431C184.136 23.0193 190.789 24.0445 196.903 22.253C200.52 21.1954 203.794 19.1935 207.205 17.5694C210.615 15.9452 214.37 14.6771 218.097 15.2221C221.825 15.7671 225.442 18.6 225.88 22.4203C226.286 25.9708 223.99 29.2786 223.699 32.8399C223.356 37.0649 225.854 41.0579 225.859 45.2937C225.869 49.5295 223.335 53.4308 220.077 56.0479C216.819 58.6649 212.881 60.2135 208.752 63.1543C220.336 60.4941 231.725 67.3901 243.351 69.8507C255.062 72.3274 267.359 70.2716 279.055 72.8239C284.503 74.011 290.528 77.146 291.336 82.7794C291.964 87.1555 289.134 91.2294 286.156 94.44C281.077 99.9115 275.131 104.466 269.197 108.944C254.397 120.114 238.261 131.462 219.882 132.266C209.285 132.73 198.889 129.6 188.139 126.022C191.053 139.998 185.356 154.416 177.721 166.39C170.086 178.358 160.408 188.977 153.872 201.609C151.443 206.303 149.362 211.392 145.476 214.921C141.59 218.45 135.144 219.793 131.316 216.2C128.111 213.194 127.942 208.127 125.835 204.237C123.718 200.33 119.805 197.88 116.347 195.15C105.829 186.835 98.4847 174.43 96.172 161.048C93.8541 147.666 96.5839 133.436 106.695 118.177L106.679 118.182Z" fill="#F5C523"/>
<path d="M121.389 218.525C118.892 215.585 115.264 213.513 111.457 213.502C105.433 213.48 100.29 218.628 98.3843 224.472C96.4782 230.315 97.1646 236.688 98.2364 242.748C100.496 255.525 104.102 268.168 109.023 281.76C114.097 273.818 119.499 265.648 122.947 256.847C126.395 248.041 128.111 238.274 126.146 229.01C125.339 225.206 123.887 221.466 121.389 218.525Z" fill="#6C7B4A"/>
<path d="M69.1913 237.071C66.2028 236.326 63.0507 236.736 60.0464 237.416C42.6805 241.345 25.1088 256.361 18.8151 273.364C28.2398 267.607 37.3372 263.09 43.9425 261.331C50.5477 259.572 57.3694 258.725 63.943 256.831C67.1955 255.892 70.4796 254.635 72.9506 252.277C75.4217 249.919 76.9212 246.223 75.918 242.926C74.9993 239.92 72.185 237.821 69.1966 237.076L69.1913 237.071Z" fill="#6C7B4A"/>
<path d="M185.631 268.697C180.366 264.542 172.663 262.135 167.182 265.982C163.349 268.675 161.696 273.925 162.515 278.604C163.333 283.282 166.301 287.367 169.986 290.27C173.671 293.173 178.038 295.023 182.441 296.556C192.59 300.096 203.171 301.828 218.34 304.979C203.688 297.646 198.545 278.884 185.631 268.697Z" fill="#315A2B"/>
<path d="M275.116 273.278C269.244 268.626 263.822 263.355 257.591 259.221C252.565 255.887 246.688 253.264 240.743 254.009C234.798 254.753 229.085 259.88 229.365 265.993C229.549 270.046 232.247 273.628 235.563 275.846C238.884 278.069 242.792 279.154 246.63 280.179C260.949 283.999 274.662 288.23 293.759 284.097C286.436 282.818 280.987 277.924 275.116 273.272V273.278Z" fill="#315A2B"/>
<path d="M222.902 328.371C224.613 331.953 229.301 332.542 233.198 332.466C242.153 332.288 251.245 331.069 259.371 327.216C267.491 323.363 274.588 315.593 276.441 305.88C262.428 313.359 248.758 314.584 230.996 318.005C222.775 319.586 221.782 326.029 222.902 328.371Z" fill="#315A2B"/>
<path d="M161.364 126.352L161.76 160.422C161.765 161.015 161.301 161.506 160.714 161.512H160.704C160.128 161.512 159.653 161.037 159.648 160.443L159.252 126.373C159.247 125.78 159.711 125.289 160.297 125.283C160.883 125.267 161.359 125.753 161.364 126.352ZM139.114 124.571C138.533 124.609 138.09 125.122 138.132 125.72C139.125 141.121 138.871 156.72 137.393 172.077C137.335 172.671 137.757 173.199 138.338 173.259C138.375 173.259 138.407 173.259 138.444 173.259C138.982 173.259 139.441 172.843 139.494 172.288C140.988 156.812 141.237 141.094 140.239 125.575C140.202 124.981 139.7 124.528 139.114 124.571ZM123.728 122.418C123.728 122.418 123.718 122.418 123.712 122.418C123.132 122.429 122.667 122.92 122.672 123.514L123.116 150.143C123.126 150.731 123.596 151.206 124.172 151.206C124.177 151.206 124.182 151.206 124.188 151.206C124.768 151.195 125.233 150.704 125.228 150.11L124.784 123.481C124.774 122.893 124.304 122.418 123.728 122.418ZM111.663 34.0432C111.447 33.4874 110.835 33.2176 110.291 33.4335C109.747 33.6547 109.483 34.2806 109.694 34.8364L118.237 56.9436C118.401 57.3699 118.797 57.6289 119.219 57.6289C119.346 57.6289 119.478 57.6073 119.605 57.5534C120.148 57.3322 120.412 56.7062 120.201 56.1504L111.658 34.0432H111.663ZM94.6884 79.8657L68.4627 71.0055C67.9083 70.8166 67.3117 71.1242 67.1269 71.6908C66.9421 72.2574 67.243 72.8671 67.7974 73.056L94.0231 81.9161C94.134 81.9539 94.2448 81.9701 94.3557 81.9701C94.7992 81.9701 95.2111 81.6841 95.3589 81.2308C95.5437 80.6643 95.2428 80.0545 94.6884 79.8657ZM85.9289 88.9309C86.441 88.9309 86.8898 88.5477 86.969 88.0135C87.0588 87.4254 86.6628 86.875 86.082 86.7833C76.7153 85.3264 67.1691 84.3227 57.7074 83.8047C57.1319 83.7723 56.625 84.231 56.5986 84.8245C56.5669 85.4181 57.0157 85.9307 57.5965 85.9577C66.9896 86.4757 76.4672 87.4686 85.7652 88.9147C85.818 88.9255 85.8708 88.9255 85.9236 88.9255L85.9289 88.9309ZM89.3133 101.698C81.0819 101.325 72.7606 101.655 64.5819 102.674C64.0011 102.744 63.5893 103.284 63.6632 103.878C63.7266 104.423 64.1859 104.827 64.7087 104.827C64.7509 104.827 64.7931 104.827 64.8407 104.822C72.9032 103.813 81.103 103.489 89.2183 103.856C89.8044 103.878 90.2954 103.419 90.3218 102.825C90.3482 102.232 89.8941 101.725 89.3133 101.698ZM242.491 106.7C233.958 103.727 225.098 101.622 216.154 100.446C215.573 100.37 215.045 100.786 214.971 101.379C214.898 101.973 215.304 102.512 215.885 102.588C224.687 103.748 233.409 105.815 241.804 108.745C241.915 108.783 242.031 108.804 242.147 108.804C242.586 108.804 242.998 108.524 243.145 108.076C243.335 107.509 243.04 106.899 242.485 106.705L242.491 106.7ZM254.033 92.0389C244.55 89.028 234.814 86.4649 225.083 84.4198C224.512 84.3011 223.953 84.6734 223.837 85.2616C223.72 85.8498 224.085 86.4163 224.66 86.535C234.323 88.5639 243.995 91.1054 253.41 94.1002C253.515 94.1326 253.621 94.1487 253.721 94.1487C254.17 94.1487 254.587 93.852 254.73 93.3879C254.904 92.8213 254.592 92.2116 254.033 92.0389ZM141.738 57.6451C140.307 53.5388 138.829 49.2922 137.256 45.0402C137.05 44.4844 136.442 44.1984 135.893 44.4142C135.349 44.6247 135.075 45.2452 135.281 45.8064C136.849 50.0422 138.322 54.278 139.753 58.3736C141.184 62.4799 142.662 66.7265 144.236 70.9785C144.394 71.4102 144.795 71.6746 145.223 71.6746C145.344 71.6746 145.471 71.653 145.598 71.6045C146.142 71.394 146.416 70.7735 146.21 70.2123C144.647 65.9819 143.169 61.746 141.743 57.6451H141.738ZM166.227 10.2039C165.646 10.1499 165.128 10.5816 165.07 11.1752C163.608 26.4889 163.138 45.4233 163.64 69.0522C163.65 69.6403 164.12 70.1098 164.696 70.1098C164.701 70.1098 164.711 70.1098 164.717 70.1098C165.297 70.099 165.762 69.6026 165.752 69.009C165.255 45.4665 165.72 26.6184 167.172 11.391C167.23 10.7974 166.802 10.2686 166.221 10.2093L166.227 10.2039ZM191.803 45.3369C191.28 45.0725 190.647 45.2938 190.388 45.828C185.657 55.6648 182.473 63.4026 180.361 70.1799C180.187 70.7465 180.493 71.3562 181.048 71.5343C181.153 71.5667 181.264 71.5829 181.37 71.5829C181.818 71.5829 182.23 71.2915 182.378 70.8328C184.458 64.158 187.605 56.5174 192.289 46.7777C192.547 46.2435 192.331 45.596 191.808 45.3316L191.803 45.3369Z" fill="#343A5D"/>
<path d="M192.917 36.903C190.129 37.3023 187.88 40.092 188.017 42.9627C188.154 45.8333 190.668 48.3802 193.482 48.4935C196.291 48.6122 198.999 46.2812 199.364 43.4321C199.728 40.583 197.706 37.6207 192.917 36.903Z" fill="#EE6E40"/>
<path d="M166.903 0C164.199 0.221234 161.718 2.25011 160.957 4.91031C160.197 7.57051 161.248 10.6732 163.476 12.2488C165.704 13.8244 168.956 13.7057 171.042 11.9412C172.457 10.7433 173.291 8.93569 173.635 7.08488C173.93 5.49847 173.877 3.78256 173.091 2.38501C172.304 0.987458 170.651 0.0269797 166.908 0L166.903 0Z" fill="#EE6E40"/>
<path d="M133.977 34.0701C131.653 35.1331 129.594 37.0379 128.829 39.52C128.063 42.0022 128.85 45.0401 131.004 46.4269C132.583 47.4413 134.631 47.4521 136.395 46.8477C139.415 45.8117 141.817 42.79 141.712 39.5362C141.601 36.2825 138.243 32.1276 133.977 34.0755V34.0701Z" fill="#EE6E40"/>
<path d="M172.811 68.0754C159.511 66.8451 146.004 68.3776 133.105 71.9065C125.761 73.9138 118.195 76.941 113.622 83.1463C110.908 86.8263 109.53 92.1198 111.933 96.0211C113.971 99.3288 118.005 100.618 121.722 101.525C145.471 107.299 170.34 107.363 194.475 103.592C198.377 102.982 202.326 102.248 205.837 100.408C209.343 98.5626 212.4 95.4275 213.282 91.4993C214.148 87.6465 212.796 83.5186 210.404 80.4106C208.012 77.3025 196.571 70.2716 172.821 68.0754H172.811Z" fill="#EE6E40"/>
<path d="M136.511 90.6576C135.809 92.3411 133.781 93.3178 132.065 92.789C130.349 92.2602 129.188 90.2907 129.547 88.4938C129.906 86.697 131.738 85.348 133.517 85.5746C136.717 85.9901 137.213 88.9687 136.511 90.6522V90.6576ZM156.57 91.3375C155.218 90.9382 153.655 91.4238 152.758 92.53C151.86 93.6362 151.675 95.2927 152.309 96.577C153.127 98.2389 155.16 99.0537 156.955 98.73C158.587 98.4386 160.118 97.1813 160.408 95.514C160.699 93.8466 159.363 92.1685 156.57 91.3375ZM176.359 89.8158C174.516 89.9939 172.895 91.5749 172.637 93.4473C172.378 95.3197 173.508 97.2946 175.229 97.9907C176.95 98.6814 179.094 98.0231 180.155 96.4744C181 95.2442 181.122 93.5067 180.367 92.2116C179.617 90.9166 177.991 90.1936 176.359 89.8158ZM192.928 82.704C190.425 83.2112 188.065 85.4451 188.297 88.0406C188.487 90.1612 190.536 91.8825 192.621 91.7746C194.702 91.6613 196.529 89.8212 196.777 87.706C197.025 85.5908 195.747 83.4162 192.928 82.704Z" fill="#F5C523"/>
</svg>
