<svg width="175" height="251" viewBox="0 0 175 251" fill="none" xmlns="http://www.w3.org/2000/svg">
<path d="M49.9987 169.937C44.1003 162.448 36.692 156.348 28.4343 152.19C26.4721 151.203 24.3763 150.304 22.2135 150.431C20.0508 150.558 17.8134 151.974 17.2786 154.237C16.673 156.802 18.2184 160.023 16.4961 161.909C15.2849 163.236 12.8784 163.193 12.3082 164.952C11.9072 166.177 12.7251 167.445 12.9256 168.725C13.3778 171.586 10.8415 173.807 9.07988 176.007C6.61831 179.084 5.48976 183.967 7.8255 187.154C9.88599 189.968 13.6609 190.337 16.9876 190.312C23.2831 190.265 29.5747 189.621 35.1859 188.65C24.3763 196.614 16.1736 208.605 12.3082 222.088C11.8796 223.58 11.4982 225.136 11.6437 226.687C11.7892 228.242 12.5599 229.815 13.8811 230.455C15.1355 231.061 16.5826 230.73 17.9549 230.595C19.3233 230.459 20.9277 230.65 21.6984 231.875C22.6854 233.452 22.013 236.258 23.6645 236.931C24.7695 237.381 25.8705 236.334 27.0148 236.033C29.2011 235.456 31.1554 237.665 32.1542 239.835C33.1569 242.009 33.908 244.561 35.8584 245.773C37.9267 247.057 40.6714 246.265 42.4763 244.582C44.2812 242.899 45.3586 240.509 46.3849 238.186C50.8755 228.048 55.3622 217.905 60.3286 208.249C61.642 215.476 64.2373 222.427 67.9296 228.62C69.4671 231.197 71.2838 233.731 73.8201 235.113C76.3564 236.495 79.7735 236.419 81.7278 234.198C83.1119 232.629 83.6231 230.226 85.2865 229.018C87.0206 227.759 89.6512 228.09 90.9292 226.305C92.0814 224.695 91.4247 222.317 92.0656 220.405C93.4773 216.184 99.8908 216.557 101.794 212.568C102.655 210.763 102.282 208.504 101.318 206.757C100.355 205.011 98.8841 203.672 97.441 202.366C94.0789 199.323 90.7129 196.284 87.5042 193.44C97.1185 193.537 106.705 189.133 113.292 181.58C114.365 180.351 115.376 179.016 115.926 177.435C116.477 175.858 116.501 173.989 115.671 172.561C114.991 171.391 113.815 170.619 113.197 169.407C112.348 167.737 112.753 165.694 112.93 163.8C113.107 161.905 112.832 159.625 111.271 158.73C109.989 157.997 108.314 158.523 107.047 157.755C104.354 156.119 106.316 151.186 104.421 148.554C103.591 147.401 102.132 146.943 100.783 147.053C99.4346 147.163 98.1645 147.765 96.9495 148.409C88.8058 152.712 81.7042 159.273 75.9081 168.076C78.3225 159.095 80.7369 150.109 83.1513 141.128C83.6349 139.33 84.1225 137.478 83.9652 135.618C83.808 133.757 82.8524 131.845 81.2284 131.184C78.1495 129.934 74.8464 133.604 71.6692 132.68C70.2142 132.256 69.007 130.9 67.4971 130.908C65.5624 130.917 64.3395 133.07 62.7627 134.278C59.1765 137.025 53.6202 134.833 50.1756 137.783C47.6079 139.983 47.3759 144.035 47.4978 147.566C47.7533 154.882 48.6106 162.172 50.0065 169.941L49.9987 169.937Z" fill="#F5C523"/>
<path d="M62.2003 175.651C58.2838 176.952 54.5442 178.864 51.1311 181.313C49.1138 182.759 46.9983 184.908 47.3286 187.497C47.5606 189.324 49.043 190.753 50.6789 191.278C52.3186 191.804 54.0802 191.579 55.7475 191.172C58.2759 190.553 60.7139 189.528 62.9592 188.133C64.5282 187.158 66.0342 185.976 67.0487 184.357C68.0632 182.742 68.5233 180.627 67.8981 178.796C67.2768 176.965 65.2674 174.633 62.1963 175.655L62.2003 175.651Z" fill="#255A81"/>
<path d="M167.832 150.211C166.927 141.03 165.067 131.96 162.299 123.22C161.815 121.698 161.288 120.147 160.309 118.935C159.334 117.718 157.804 116.892 156.349 117.239C153.282 117.977 152.327 123.122 149.197 123.411C146.924 123.618 144.462 121.041 142.657 122.542C141.148 123.796 141.95 126.64 140.684 128.179C138.855 130.404 135.009 127.768 132.803 129.548C131.215 130.832 131.47 133.634 130.063 135.143C128.482 136.838 125.694 136.075 123.787 137.322C121.817 138.61 121.482 141.708 122.43 143.968C123.378 146.227 125.265 147.842 127.082 149.367C132.508 153.924 137.939 158.485 143.137 162.927C133.786 158.608 122.859 158.421 113.386 162.418C111.833 163.075 110.276 163.868 109.147 165.198C108.022 166.525 107.413 168.5 108.03 170.17C108.471 171.37 109.497 172.366 109.505 173.654C109.521 175.799 106.855 176.816 106.221 178.855C105.498 181.186 107.665 183.272 108.589 185.522C109.985 188.93 108.451 193.041 109.607 196.547C110.7 199.857 114.054 201.841 117.314 202.01C120.57 202.18 123.736 200.853 126.645 199.264C134.758 194.817 142.119 187.976 151.167 186.946C148.017 193.533 145.072 200.234 142.343 207.033C141.67 208.711 140.998 210.445 140.955 212.272C140.912 214.099 141.635 216.065 143.137 216.909C146.106 218.583 149.728 215.12 152.944 216.133C154.71 216.688 155.909 218.469 157.576 219.299C160.046 220.528 162.96 219.452 165.35 218.057C167.745 216.667 170.12 214.917 172.833 214.773C176.711 214.565 180.525 217.697 184.225 216.442C187.072 215.476 188.731 212.094 188.822 208.881C188.912 205.668 187.756 202.578 186.557 199.632C185.361 196.687 184.084 193.686 184.642 190.35C186.25 195.042 187.945 199.882 191.209 203.439C194.469 206.995 199.761 208.902 203.863 206.567C206.596 205.011 208.385 201.866 211.236 200.578C214.004 199.327 217.665 199.844 219.536 197.31C221.227 195.021 220.354 191.685 220.708 188.786C220.956 186.743 221.845 184.865 222.718 183.034C223.657 181.059 224.625 179.046 226.115 177.52C227.141 176.469 228.427 175.621 229.025 174.239C229.788 172.485 229.174 170.323 227.999 168.852C226.823 167.381 225.183 166.462 223.587 165.571C218.097 162.52 212.569 159.455 206.651 157.565C200.729 155.674 194.327 155.017 188.319 157.052C194.036 150.122 204.004 148.711 209.623 141.687C211.07 139.877 212.195 137.648 212.282 135.257C212.368 132.867 211.224 130.341 209.191 129.387C207.634 128.658 205.852 128.921 204.154 128.878C202.455 128.84 200.532 128.302 199.761 126.67C199.238 125.56 199.352 124.123 198.586 123.19C197.323 121.66 194.999 122.716 193.124 122.402C189.298 121.766 188.051 115.603 184.249 114.815C182.656 114.484 181.001 115.26 179.813 116.451C178.626 117.642 177.831 119.21 177.096 120.766C172.774 129.925 169.849 139.848 167.832 150.207V150.211Z" fill="#92C7EB"/>
<path d="M171.756 160.311C167.686 159.959 163.518 161.112 160.113 163.532C159.275 164.126 158.465 164.817 157.93 165.728C157.396 166.644 157.168 167.822 157.541 168.822C158.202 170.59 160.278 171.073 162.036 171.276C166.75 171.823 171.764 172.116 175.983 169.789C177.989 168.682 179.88 166.58 179.566 164.177C179.373 162.71 178.354 161.477 177.128 160.82C175.897 160.163 174.481 160.019 171.756 160.311Z" fill="#255A81"/>
<path d="M84.7358 52.7287C85.8251 42.3527 86.9143 31.981 88.0074 21.605C88.4007 17.8624 88.7624 13.8951 87.276 10.4873C85.7897 7.07953 81.7237 4.68475 78.6959 6.56666C76.6944 7.80856 75.499 10.6145 73.2065 10.9324C70.3203 11.3308 67.9334 7.40166 65.1022 8.11373C61.3312 9.05893 62.0941 16.5145 58.3663 17.6293C55.3228 18.5363 52.5073 14.0858 49.4834 15.0692C46.1921 16.1415 46.955 21.8593 44.3479 24.2753C41.8745 26.5684 37.8322 24.7119 34.9224 26.3013C33.0742 27.3101 32.044 29.5862 31.8985 31.8157C31.753 34.0452 32.3585 36.245 33.0585 38.3473C36.9199 49.8931 44.0687 60.1334 53.3999 67.5127C43.007 62.9054 32.6023 58.2939 21.8988 54.6063C18.0177 53.2712 13.8299 52.0505 9.92912 53.3221C6.02835 54.5894 2.85111 59.3662 4.48298 63.3886C5.43458 65.7283 7.81358 67.606 7.5108 70.1406C7.29059 71.9632 5.74916 73.1881 4.46332 74.3919C3.18141 75.5999 1.95849 77.4436 2.62304 79.1348C3.05951 80.2538 4.18806 80.8726 4.80149 81.8899C6.22496 84.255 4.39647 87.2262 2.96121 89.5786C1.35293 92.1853 0.149665 95.165 0.012037 98.2888C-0.125591 101.413 0.91645 104.693 3.16568 106.677C6.77547 109.86 12.08 108.919 16.5785 107.609C24.8087 105.21 32.8697 102.133 40.5454 98.9119C29.5352 114.688 22.8661 133.943 21.6039 153.64C21.4191 156.488 21.8438 160.138 24.3879 160.939C27.8955 162.041 31.3755 156.238 34.5567 158.167C36.566 159.383 36.4127 162.723 38.0917 164.427C39.7433 166.106 42.4369 165.546 44.4973 164.516C46.5578 163.49 48.6458 162.062 50.899 162.342C55.9912 162.969 57.863 171.497 62.9827 171.798C64.9646 171.912 66.8403 170.624 68.0514 168.928C69.2625 167.229 69.9192 165.16 70.5287 163.126C75.3378 147.041 78.3813 130.341 79.8284 113.361C85.6953 123.44 91.8256 133.821 100.984 140.467C102.753 141.751 104.696 142.908 106.823 143.116C108.95 143.323 111.294 142.361 112.269 140.318C112.934 138.928 112.906 137.216 113.708 135.914C115.663 132.731 120.629 134.257 123.346 131.803C125.21 130.12 125.399 127.119 125.124 124.513C124.848 121.906 124.27 119.193 125.1 116.731C127.165 110.627 136.358 109.902 137.821 103.595C138.804 99.3569 135.556 95.4151 132.371 92.7151C124.019 85.6325 114.106 80.7031 104.767 78.8678C112.623 70.5475 121.864 63.7616 131.923 58.9254C138.1 55.9542 145.166 53.1652 148.167 46.6294C149.11 44.5737 149.563 42.1916 149.071 39.9622C148.579 37.7327 147.046 35.7109 144.993 35.1006C142.319 34.3037 139.158 35.8762 136.822 34.2571C134.671 32.7651 134.329 29.2302 132.107 27.8696C128.828 25.8605 124.349 30.1203 121.117 28.0264C118.136 26.0979 119.096 20.6259 116.355 18.3202C113.673 16.061 109.839 18.4685 107.338 20.9565C98.4003 29.849 91.1218 40.67 84.7358 52.7287Z" fill="#92C7EB"/>
<path d="M69.5575 73.1584C64.7877 75.71 60.5409 79.3806 57.1945 83.8396C55.3582 86.2852 53.746 89.6548 55.1026 92.4438C56.0031 94.296 58.0439 95.2667 59.9825 95.2709C61.9211 95.2752 63.7889 94.4698 65.5151 93.5162C71.7398 90.0829 76.9422 84.5389 80.1981 77.8674C80.8115 76.6086 81.3699 75.1972 81.0907 73.8112C80.6739 71.7427 78.4718 70.5687 76.5136 70.7213C74.5553 70.8781 72.6089 71.5223 69.5535 73.1584H69.5575Z" fill="#255A81"/>
<path d="M139.307 52.4658C130.373 45.6672 121.203 38.7456 110.649 35.6515C108.026 34.8843 105.191 34.3672 102.624 35.3293C100.056 36.2915 97.9284 39.1652 98.5065 42.0305C98.8407 43.6962 100.013 45.1628 99.9417 46.8667C99.7805 50.6347 94.3226 51.2875 92.8952 54.7292C92.0498 56.7679 92.8834 59.1712 92.4705 61.3625C92.038 63.6598 90.3314 65.3764 88.9551 67.1905C84.8852 72.5523 83.6584 81.2794 88.3023 86.0648C91.4009 89.2564 96.0528 89.7777 100.335 90.0151C112.222 90.6721 124.149 90.4559 135.615 89.7311C126.602 96.7756 119.025 105.944 113.575 116.404C112.348 118.757 111.208 121.257 111.042 123.949C110.881 126.64 111.915 129.578 114.125 130.845C119.147 133.723 126.095 126.687 130.558 130.485C132.74 132.345 133.114 136.118 135.56 137.55C138.658 139.364 142.634 136.097 145.929 137.453C148.406 138.474 149.468 141.679 151.678 143.26C153.746 144.739 156.566 144.531 158.776 143.319C160.986 142.107 162.68 140.034 164.135 137.868C170.789 127.95 173.337 114.955 171.618 103.294C180.497 114.357 189.372 125.42 198.251 136.478C200.1 138.784 202.018 141.145 204.543 142.518C207.067 143.891 210.378 144.044 212.533 142.073C216.308 138.619 215.187 130.425 219.898 128.772C222.222 127.959 225.25 129.23 226.917 127.306C228.533 125.441 227.33 122.19 228.541 119.994C230.268 116.862 234.986 118.346 237.778 116.29C239.355 115.128 240.067 112.941 240.008 110.886C239.949 108.83 239.233 106.863 238.454 104.986C231.227 87.5737 217.429 73.4593 199.506 67.021C207.335 65.5163 215.16 64.0116 222.989 62.5069C226.898 61.7567 230.956 60.9344 234.153 58.3998C237.35 55.8651 239.379 51.0671 237.696 47.1888C236.406 44.2176 233.441 42.6324 230.798 41.0005C228.16 39.3687 225.403 37.0375 225.167 33.7653C224.998 31.4596 226.107 28.891 224.92 26.9667C222.93 23.7454 217.079 26.2673 215.302 22.9062C214.208 20.8378 215.687 18.2565 215.439 15.8871C215.132 12.9583 212.112 11.0679 209.38 11.2332C206.647 11.4028 204.213 13.0727 202.007 14.8148C190.517 23.8853 181.516 36.1898 174.438 50.1007C179.121 38.9364 181.984 26.8904 182.857 14.6749C183.069 11.7037 183.152 8.63074 182.2 5.82907C181.248 3.03162 179.035 0.543598 176.286 0.229945C172 -0.253249 168.178 4.45154 163.947 3.56992C162.212 3.20964 160.777 1.95503 159.232 1.03103C157.687 0.107027 155.709 -0.477892 154.206 0.522405C152.421 1.7092 152.063 4.62532 150.176 5.60018C146.999 7.2405 143.707 1.82364 140.326 2.89175C137.778 3.69708 137.156 7.60502 134.742 8.79181C132.355 9.96589 129.614 7.91867 127.011 8.26623C124.864 8.55445 123.142 10.4999 122.414 12.6997C121.687 14.8996 121.793 17.3113 122.068 19.6255C123.484 31.4087 129.347 42.4967 139.331 52.47L139.307 52.4658Z" fill="#4180C0"/>
<path d="M167.867 62.7738C165.606 61.9092 163.31 61.036 160.919 60.8453C158.528 60.6545 155.98 61.2225 154.187 62.9434C152.394 64.6642 151.584 67.6821 152.716 69.9624C153.746 72.0435 155.984 73.0099 158.064 73.7474C163.781 75.7692 169.798 77.24 175.787 76.6042C177.411 76.4304 179.058 76.0913 180.45 75.18C181.846 74.2688 182.951 72.7005 183.014 70.9457C183.116 67.9957 180.391 65.8213 177.753 65.0287C175.114 64.2361 172.177 64.4311 167.867 62.7823V62.7738Z" fill="#255A81"/>
<path d="M131.297 203.93C135.969 201.866 140.314 198.95 144.093 195.343C145.422 194.076 146.727 192.647 147.278 190.825C147.825 189.002 147.38 186.705 145.843 185.747C144.58 184.963 143.008 185.259 141.549 185.293C140.09 185.323 138.348 184.819 137.915 183.314C137.636 182.339 137.97 181.118 137.314 180.385C136.252 179.203 134.388 180.902 132.917 180.453C131.329 179.97 131.242 177.469 129.972 176.325C129.025 175.473 127.57 175.583 126.5 176.248C125.434 176.914 124.679 178.028 124.003 179.135C120.224 185.314 117.794 192.448 116.858 199.976C117.055 192.918 115.478 185.81 112.336 179.614C111.558 178.075 110.28 176.384 108.683 176.698C107.452 176.939 106.725 178.262 106.045 179.397C105.368 180.529 104.311 181.72 103.088 181.453C102.128 181.245 101.393 180.177 100.418 180.254C99.4424 180.33 98.8958 181.491 98.652 182.513C98.4082 183.534 98.192 184.713 97.3465 185.242C95.7933 186.217 93.5795 184.128 92.1324 185.281C90.9606 186.213 91.401 188.527 90.1663 189.358C89.4585 189.837 88.5305 189.574 87.7126 189.756C86.2459 190.087 85.3729 191.867 85.4712 193.474C85.5695 195.084 86.3953 196.53 87.2879 197.822C90.5398 202.548 94.9872 206.312 99.4817 209.029C94.4563 206.876 88.9001 206.177 83.5483 207.033C82.3805 207.219 81.189 207.491 80.2138 208.207C79.2386 208.923 78.519 210.174 78.692 211.432C78.9437 213.268 80.9452 214.819 80.3003 216.54C79.9622 217.443 78.9948 217.9 78.5623 218.757C77.7444 220.376 79.1836 222.224 79.447 224.046C79.7773 226.322 78.2202 228.632 78.8061 230.849C79.4274 233.193 82.0502 234.1 84.3033 234.291C91.574 234.905 99.0453 231.705 103.961 225.534C102.246 230.578 100.528 235.63 99.3677 240.852C98.9627 242.666 98.6284 244.586 99.1042 246.379C99.58 248.176 101.106 249.779 102.832 249.626C105.014 249.427 106.756 246.634 108.86 247.295C110.382 247.769 111.373 249.965 112.926 249.643C113.532 249.516 114.003 249.016 114.562 248.727C116.721 247.617 119.1 249.961 121.49 249.931C123.232 249.914 124.786 248.579 125.627 246.934C126.469 245.29 126.705 243.374 126.815 241.501C127.145 235.919 126.469 230.264 125.234 225.373C130.291 230.79 136.386 235.134 143.122 237.648C144.698 238.237 146.37 238.729 148.017 238.449C149.665 238.169 151.273 236.915 151.568 235.147C151.934 232.93 150.294 230.298 151.655 228.586C152.256 227.831 153.231 227.607 154.1 227.272C154.969 226.937 155.893 226.276 155.949 225.284C156.008 224.195 154.981 223.313 154.989 222.224C155.001 220.367 157.58 220.058 158.607 218.57C159.24 217.65 159.181 216.336 158.717 215.306C158.253 214.276 157.447 213.48 156.629 212.746C149.842 206.664 140.896 203.447 131.293 203.917L131.297 203.93Z" fill="#4180C0"/>
<path d="M120.267 206.8C116.976 206.766 113.465 206.8 110.704 208.737C109.552 209.546 108.51 211.03 109.001 212.416C109.434 213.632 110.795 214.09 111.994 214.264C115.364 214.747 118.856 214.217 121.966 212.746C122.949 212.28 123.96 211.649 124.38 210.585C124.746 209.652 124.546 208.495 123.889 207.77C123.232 207.046 122.167 206.796 120.263 206.804L120.267 206.8Z" fill="#255A81"/>
<path d="M182.098 220.744C175.362 223.72 167.938 224.864 160.699 224.038C158.465 223.783 155.74 222.796 155.492 220.393C155.264 218.167 157.411 216.451 157.769 214.242C158.068 212.416 157.101 210.44 157.777 208.737C158.202 207.673 159.161 206.999 159.971 206.24C160.781 205.481 161.528 204.384 161.281 203.256C161.06 202.247 160.117 201.603 159.755 200.641C159.212 199.208 160.187 197.526 161.497 196.894C162.806 196.267 164.316 196.428 165.728 196.691C171.449 197.75 176.939 200.255 181.677 203.926C179.695 197.64 173.706 193.724 171.205 187.658C170.738 186.522 170.395 185.259 170.627 184.043C170.863 182.826 171.827 181.703 172.979 181.716C173.962 181.729 174.862 182.521 175.834 182.377C177.595 182.123 178.177 179.122 179.951 179.007C181.504 178.906 182.652 181.19 184.166 180.809C185.161 180.559 185.578 179.325 185.995 178.321C186.411 177.316 187.355 176.244 188.291 176.689C189.003 177.032 189.18 178.049 189.766 178.605C190.788 179.584 192.396 178.723 193.411 177.732C194.425 176.74 195.621 175.528 196.946 175.905C198.145 176.244 198.696 177.715 199.01 179.007C200.697 185.891 200.748 193.232 199.993 200.429C202.942 194.075 206.643 188.129 210.976 182.775C211.727 181.851 212.533 180.91 213.591 180.453C214.649 179.995 216.029 180.165 216.697 181.156C217.629 182.542 216.902 184.92 218.215 185.887C219.493 186.827 221.77 185.56 222.549 187.001C222.954 187.752 222.568 188.692 222.572 189.561C222.584 191.681 224.766 192.846 226.461 193.919C228.848 195.432 230.983 198.39 230.043 201.196C229.284 203.455 226.925 204.502 224.806 205.231C220.736 206.626 216.595 207.791 212.62 208.639C221.208 210.902 228.938 216.739 233.842 224.669C234.829 226.267 235.635 228.611 234.322 229.908C233.232 230.985 231.274 230.574 230.326 231.798C229.395 233.006 230.091 234.969 229.328 236.304C228.644 237.499 227.118 237.69 226.036 238.466C223.292 240.437 223.709 245.832 220.606 247.036C218.416 247.888 216.226 245.913 214.609 244.107C209.757 238.669 204.905 233.235 200.19 227.759C201.079 234.011 200.312 240.526 197.996 246.337C197.492 247.6 196.895 248.863 195.955 249.791C195.011 250.719 193.658 251.262 192.432 250.872C190.198 250.156 189.093 246.697 186.761 246.786C185.904 246.82 185.149 247.358 184.371 247.735C183.588 248.113 182.597 248.308 181.936 247.718C180.894 246.794 181.516 244.815 180.678 243.679C179.939 242.675 178.472 242.84 177.383 243.353C176.294 243.861 175.224 244.633 174.037 244.544C172.515 244.429 171.363 242.848 171.135 241.221C170.907 239.597 171.39 237.957 171.945 236.427C173.934 230.976 176.966 225.975 182.098 220.744Z" fill="#F5C523"/>
<path d="M97.0043 171.128L86.0295 174.362C85.9587 174.383 85.8919 174.392 85.8211 174.392C85.475 174.392 85.1605 174.146 85.0622 173.769C84.9481 173.315 85.1959 172.849 85.6127 172.726L96.5875 169.492C97.0083 169.365 97.4408 169.636 97.5548 170.086C97.6689 170.539 97.4211 171.005 97.0043 171.128ZM72.6402 198.823C72.3257 198.501 71.8263 198.518 71.5274 198.857C71.2286 199.196 71.2443 199.734 71.5589 200.056C73.7649 202.303 75.8293 204.744 77.6971 207.317C77.8504 207.529 78.0824 207.643 78.3184 207.643C78.4875 207.643 78.6605 207.584 78.802 207.465C79.1441 207.177 79.2031 206.643 78.9357 206.274C77.0207 203.634 74.9052 201.129 72.6402 198.827V198.823ZM42.1183 204.447C41.7487 204.202 41.265 204.325 41.0369 204.723C39.177 207.97 37.1715 211.178 35.0835 214.26C34.8279 214.637 34.9027 215.167 35.2526 215.442C35.3942 215.552 35.5554 215.608 35.7166 215.608C35.9604 215.608 36.1964 215.489 36.3536 215.26C38.4692 212.145 40.4943 208.898 42.3778 205.613C42.6059 205.215 42.4919 204.693 42.1222 204.447H42.1183ZM39.9398 179.559C40.2662 179.559 40.569 179.338 40.683 178.991C40.8285 178.55 40.6122 178.067 40.2033 177.91C37.148 176.753 33.9629 176.032 30.7345 175.769C30.3019 175.731 29.9245 176.083 29.8891 176.549C29.8537 177.016 30.18 177.423 30.6126 177.461C33.7033 177.715 36.7547 178.402 39.6803 179.508C39.7668 179.542 39.8533 179.554 39.9398 179.554V179.559ZM188.495 141.276C188.26 140.882 187.772 140.772 187.406 141.026C184.229 143.251 181.417 146.214 179.274 149.584C179.031 149.969 179.121 150.499 179.479 150.762C179.617 150.864 179.77 150.91 179.923 150.91C180.175 150.91 180.419 150.783 180.572 150.542C182.601 147.354 185.259 144.557 188.263 142.446C188.629 142.192 188.731 141.666 188.495 141.272V141.276ZM148.218 145.574C147.927 145.227 147.431 145.197 147.109 145.51C146.786 145.824 146.759 146.358 147.05 146.706L151.875 152.491C152.028 152.678 152.244 152.771 152.461 152.771C152.649 152.771 152.834 152.699 152.987 152.555C153.31 152.241 153.337 151.707 153.046 151.36L148.222 145.574H148.218ZM143.063 173.633L134.891 175.261C134.463 175.346 134.184 175.786 134.262 176.248C134.333 176.655 134.663 176.944 135.033 176.944C135.08 176.944 135.127 176.939 135.178 176.931L143.35 175.303C143.778 175.218 144.057 174.778 143.979 174.316C143.9 173.858 143.491 173.553 143.063 173.637V173.633ZM163.53 187.68C163.105 187.659 162.724 188.015 162.7 188.481L162.472 192.999C162.448 193.465 162.783 193.864 163.215 193.889C163.231 193.889 163.243 193.889 163.258 193.889C163.671 193.889 164.021 193.537 164.045 193.088L164.273 188.57C164.297 188.104 163.962 187.701 163.53 187.676V187.68ZM203.898 173.96L193.183 170.259C192.77 170.115 192.325 170.361 192.196 170.806C192.062 171.251 192.29 171.73 192.703 171.87L203.418 175.57C203.497 175.6 203.579 175.613 203.658 175.613C203.992 175.613 204.299 175.384 204.405 175.023C204.539 174.578 204.311 174.099 203.898 173.96ZM67.1509 40.9159C66.7183 40.9625 66.4037 41.3779 66.447 41.8441L67.5441 53.6188C67.5834 54.0554 67.9255 54.3817 68.3266 54.3817C68.3541 54.3817 68.3777 54.3817 68.4052 54.3817C68.8378 54.3351 69.1524 53.9197 69.1091 53.4535L68.012 41.6788C67.9688 41.2126 67.5913 40.8735 67.1509 40.9201V40.9159ZM45.559 81.4025L30.1289 82.2163C29.6964 82.2375 29.3621 82.6359 29.3818 83.1064C29.4015 83.5599 29.7514 83.9117 30.1683 83.9117C30.18 83.9117 30.1958 83.9117 30.2076 83.9117L45.6376 83.0979C46.0702 83.0767 46.4044 82.6783 46.3848 82.2078C46.3651 81.7416 45.9837 81.3855 45.559 81.4025ZM53.5375 114.383C53.1167 114.272 52.6921 114.552 52.5859 115.006C51.4849 119.872 50.7141 124.865 50.2934 129.849C50.2541 130.315 50.5726 130.726 51.0051 130.769C51.0287 130.769 51.0523 130.769 51.0759 130.769C51.477 130.769 51.823 130.438 51.8584 129.997C52.2713 125.098 53.0302 120.185 54.1116 115.4C54.2138 114.946 53.9543 114.484 53.5336 114.374L53.5375 114.383ZM110.075 107.427L95.2073 97.0851C94.8416 96.8308 94.354 96.9452 94.1181 97.3394C93.8821 97.7336 93.9883 98.2592 94.354 98.5135L109.222 108.856C109.355 108.949 109.501 108.991 109.646 108.991C109.906 108.991 110.158 108.856 110.307 108.601C110.543 108.207 110.437 107.681 110.071 107.427H110.075ZM188.283 56.7638C188.437 56.7638 188.594 56.7129 188.731 56.6112C193.214 53.2501 198.165 50.7747 203.438 49.2531C203.859 49.1302 204.106 48.6682 203.996 48.2147C203.882 47.7611 203.454 47.4941 203.033 47.6128C197.579 49.1853 192.467 51.7411 187.835 55.2167C187.477 55.4838 187.391 56.0136 187.638 56.395C187.792 56.6324 188.035 56.7596 188.283 56.7596V56.7638ZM206.973 104.096C203.583 98.0006 199.27 92.6389 194.146 88.163C193.808 87.8705 193.312 87.9256 193.041 88.2859C192.766 88.6504 192.821 89.1844 193.155 89.4769C198.133 93.8299 202.329 99.0391 205.624 104.965C205.774 105.227 206.033 105.376 206.301 105.376C206.438 105.376 206.576 105.338 206.706 105.257C207.079 105.015 207.197 104.494 206.977 104.096H206.973ZM152.889 94.1647C152.5 93.9571 152.028 94.1266 151.835 94.5462L143.515 112.581C143.322 113.001 143.479 113.509 143.869 113.717C143.983 113.776 144.101 113.806 144.219 113.806C144.51 113.806 144.785 113.632 144.922 113.336L153.243 95.3007C153.436 94.8811 153.278 94.3724 152.889 94.1647ZM131.093 72.794C125.548 70.8654 120.126 68.3944 114.982 65.4401C114.601 65.2197 114.121 65.3765 113.917 65.7919C113.712 66.203 113.858 66.7201 114.243 66.9406C119.469 69.9372 124.978 72.4507 130.609 74.4089C130.688 74.4385 130.77 74.4513 130.849 74.4513C131.183 74.4513 131.49 74.2224 131.596 73.8621C131.73 73.4171 131.502 72.9381 131.089 72.794H131.093ZM155.221 28.285C155.15 27.823 154.753 27.5094 154.317 27.5857C153.888 27.6619 153.597 28.0985 153.668 28.5605L156.141 44.8789C156.204 45.2943 156.538 45.591 156.916 45.591C156.959 45.591 156.998 45.591 157.042 45.5783C157.47 45.502 157.761 45.0654 157.69 44.6034L155.217 28.285H155.221ZM129.142 193.097C127.231 194.89 125.584 196.975 124.251 199.293C124.023 199.692 124.137 200.213 124.502 200.459C124.632 200.544 124.774 200.586 124.915 200.586C125.179 200.586 125.434 200.446 125.584 200.183C126.838 198.009 128.38 196.051 130.173 194.372C130.499 194.063 130.534 193.529 130.251 193.177C129.964 192.825 129.469 192.787 129.142 193.092V193.097ZM134.113 214.294C133.704 214.141 133.256 214.37 133.11 214.815C132.965 215.256 133.181 215.739 133.594 215.896C136.275 216.909 138.745 218.409 140.939 220.359C141.085 220.49 141.262 220.554 141.439 220.554C141.667 220.554 141.891 220.448 142.044 220.245C142.319 219.884 142.272 219.35 141.938 219.049C139.602 216.972 136.971 215.374 134.113 214.294ZM114.015 225.153C113.583 225.106 113.193 225.437 113.146 225.903L112.1 236.135C112.053 236.601 112.364 237.021 112.796 237.072C112.828 237.072 112.855 237.076 112.883 237.076C113.28 237.076 113.618 236.754 113.665 236.321L114.711 226.089C114.758 225.623 114.448 225.204 114.015 225.153ZM99.3283 218.057L89.8398 219.227C89.4073 219.282 89.1006 219.702 89.1477 220.164C89.1949 220.596 89.5331 220.914 89.9263 220.914C89.9578 220.914 89.9853 220.914 90.0168 220.91L99.5052 219.74C99.9378 219.685 100.244 219.265 100.197 218.803C100.146 218.337 99.7569 218.002 99.3283 218.057ZM108.848 199.789L102.855 195.462C102.494 195.203 102.006 195.305 101.766 195.695C101.526 196.085 101.621 196.61 101.983 196.869L107.975 201.197C108.109 201.294 108.262 201.341 108.412 201.341C108.663 201.341 108.915 201.209 109.064 200.963C109.304 200.573 109.21 200.048 108.848 199.789ZM213.579 198.543C213.39 198.119 212.922 197.941 212.529 198.145C210.437 199.226 208.475 200.586 206.69 202.184C206.356 202.485 206.312 203.019 206.588 203.379C206.745 203.583 206.965 203.685 207.193 203.685C207.37 203.685 207.547 203.621 207.697 203.49C209.38 201.981 211.236 200.696 213.21 199.675C213.603 199.471 213.768 198.967 213.579 198.543ZM217.087 227.175C215.581 224.462 213.795 221.931 211.774 219.643C211.475 219.304 210.976 219.291 210.661 219.613C210.347 219.935 210.335 220.473 210.634 220.812C212.572 223.008 214.291 225.441 215.734 228.043C215.883 228.311 216.143 228.455 216.41 228.455C216.548 228.455 216.686 228.416 216.811 228.336C217.185 228.094 217.307 227.573 217.083 227.175H217.087ZM190.053 224.958C189.648 224.792 189.191 225.013 189.038 225.449L185.92 234.346C185.767 234.783 185.971 235.274 186.376 235.44C186.466 235.478 186.561 235.495 186.655 235.495C186.974 235.495 187.273 235.287 187.391 234.948L190.509 226.051C190.662 225.615 190.458 225.123 190.053 224.958ZM178.276 212.369L169.538 211.229C169.11 211.178 168.716 211.505 168.661 211.967C168.61 212.433 168.917 212.853 169.346 212.912L178.083 214.052C178.114 214.052 178.146 214.056 178.177 214.056C178.571 214.056 178.909 213.743 178.956 213.31C179.007 212.844 178.7 212.424 178.272 212.365L178.276 212.369ZM187.729 190.197C187.312 190.333 187.08 190.808 187.206 191.257L188.912 197.272C189.015 197.636 189.329 197.873 189.663 197.873C189.738 197.873 189.817 197.861 189.895 197.835C190.312 197.7 190.544 197.225 190.418 196.776L188.712 190.761C188.586 190.312 188.146 190.062 187.729 190.197Z" fill="#255A81"/>
</svg>
