<svg width="31" height="232" viewBox="0 0 31 232" fill="none" xmlns="http://www.w3.org/2000/svg">
<path d="M14.3505 231.69C14.3612 231.268 14.3612 230.843 14.3505 230.421C14.3452 230.158 14.3452 229.899 14.4838 229.651C14.7237 229.222 14.7237 228.759 14.8303 228.311C14.889 228.06 14.8836 227.8 14.7344 227.541C14.5798 227.275 14.6811 226.96 14.4732 226.69C14.4198 226.62 14.4518 226.49 14.5105 226.413C14.7664 226.102 14.7077 225.813 14.5691 225.476C14.2439 224.692 14.0573 223.885 14.0733 223.067C14.0893 222.345 13.9614 221.631 13.7748 220.928C13.6468 220.439 13.6042 219.962 13.6095 219.473C13.6415 217.908 13.6788 216.342 13.7001 214.78C13.7428 211.846 13.7694 208.914 13.8068 205.979C13.8281 204.155 13.8388 202.327 13.8707 200.502C13.8974 199.166 13.972 197.83 13.9987 196.494C14.0253 195.062 14.0253 193.626 14.036 192.193C14.052 189.714 14.0253 187.238 14.0946 184.758C14.1639 182.349 14.132 179.936 14.2866 177.526C14.3026 177.267 14.3132 177.004 14.3132 176.745C14.3345 174.495 14.3505 172.245 14.3665 169.998C14.3719 169.151 14.3985 168.303 14.3878 167.456C14.3719 165.924 14.5638 164.395 14.5371 162.863C14.5105 161.431 14.5958 159.998 14.6118 158.562C14.6384 156.053 14.6438 153.54 14.6651 151.031C14.6704 150.346 14.6917 149.662 14.7131 148.977C14.7397 148.263 14.6651 147.545 14.825 146.83C14.8623 146.671 14.8463 146.505 14.825 146.342C14.7557 145.753 14.7877 145.169 14.841 144.584C14.8676 144.291 14.8623 143.999 14.8623 143.703C14.8623 142.889 14.841 142.075 14.8517 141.26C14.8623 140.12 14.9156 138.977 14.9156 137.837C14.9156 136.697 14.8996 135.561 14.9476 134.421C14.9796 133.64 15.0116 132.855 15.0009 132.074C14.9796 130.446 15.2035 128.818 15.0916 127.185C15.0489 126.567 15.0809 125.949 15.0969 125.331C15.1129 124.613 15.1449 123.899 15.1609 123.181C15.2142 121.29 15.2728 119.402 15.3048 117.511C15.3155 116.86 15.3795 116.208 15.2835 115.557C15.2462 115.298 15.2888 115.035 15.2995 114.776C15.3368 113.866 15.3954 112.951 15.4114 112.041C15.4381 110.772 15.4274 109.498 15.4381 108.225C15.4434 107.378 15.4594 106.53 15.4647 105.683C15.4701 104.769 15.4594 103.858 15.4861 102.944C15.5287 101.541 15.614 100.142 15.662 98.7397C15.6833 98.1883 15.7046 97.6331 15.6247 97.078C15.582 96.756 15.6193 96.4266 15.63 96.1009C15.662 95.2201 15.71 94.3429 15.726 93.4621C15.7633 91.3748 15.7899 89.2874 15.8166 87.2037C15.8326 85.9639 15.8433 84.7278 15.8646 83.4879C15.8699 83.0327 15.8752 82.5775 15.8966 82.1186C15.9179 81.5967 15.9712 81.0749 15.9765 80.5568C15.9979 78.7655 15.9979 76.9705 16.0245 75.1792C16.0565 72.8957 16.1045 70.6159 16.1471 68.3324C16.1524 68.0067 16.1685 67.681 16.1898 67.3553C16.2004 67.1592 16.2271 66.9556 16.403 66.7965C16.6163 66.6003 16.6589 66.382 16.6696 66.1525C16.7176 65.1755 16.7762 64.1984 16.8029 63.2213C16.8562 61.4597 16.8935 59.7017 16.9361 57.94C16.9575 56.9963 16.9841 56.0525 17.0641 55.1051C17.1334 54.2909 17.0854 53.4766 17.1227 52.6624C17.2187 50.6417 17.176 48.621 17.3519 46.6039C17.4266 45.7601 17.3946 44.9089 17.4212 44.0613C17.5012 41.6816 17.5972 39.3019 17.6772 36.9221C17.7465 34.7719 17.8051 32.6179 17.8744 30.4676C17.901 29.6201 17.9437 28.7726 17.9704 27.925C18.0237 26.1634 18.0717 24.4054 18.1303 22.6437C18.157 21.8924 18.2103 21.1448 18.2423 20.3972C18.3435 17.888 18.4395 15.3787 18.5301 12.8694C18.5461 12.4771 18.5674 12.0885 18.7434 11.711C18.7967 11.5926 18.802 11.4519 18.77 11.3298C18.5301 10.4564 18.5994 9.57555 18.6367 8.69471C18.6794 7.65104 18.738 6.61106 18.786 5.56738C18.7753 5.56738 18.7594 5.56738 18.7487 5.56738C18.8127 4.00186 18.8766 2.44005 18.93 0.874531C18.9353 0.682079 18.8766 0.485927 18.8127 0.300878C18.754 0.12323 18.4342 -0.0137075 18.1623 0.00109645C17.8957 0.0121994 17.7464 0.130632 17.6345 0.282373C17.5012 0.463721 17.5012 0.659873 17.5065 0.856026C17.5332 1.99963 17.4639 3.13583 17.3733 4.27574C17.2826 5.47856 17.2187 6.68508 17.1813 7.8916C17.16 8.70582 17.256 9.52003 17.0587 10.3306C17.0214 10.4897 17.0321 10.6562 17.0267 10.8191C16.9734 12.8398 16.9308 14.8606 16.8721 16.8813C16.8615 17.2403 16.8402 17.5993 16.7549 17.9509C16.6376 18.4357 16.5949 18.9205 16.5896 19.4128C16.5896 19.6089 16.5789 19.8014 16.5576 19.9975C16.5256 20.3861 16.467 20.7784 16.4563 21.167C16.4084 22.5993 16.387 24.0353 16.339 25.4713C16.3124 26.3188 16.2431 27.1663 16.2058 28.0139C16.1151 30.0013 16.1791 31.9924 15.9445 33.9762C15.9285 34.1057 15.9552 34.2352 15.9605 34.3648C15.9659 34.6238 15.9925 34.8866 15.9659 35.1457C15.7473 37.2293 15.7846 39.3167 15.6673 41.4003C15.5554 43.3544 15.55 45.3123 15.4967 47.2664C15.4754 48.0177 15.4434 48.7653 15.4114 49.5129C15.3794 50.2309 15.3368 50.9452 15.3155 51.6632C15.2675 53.0658 15.2995 54.4685 15.1769 55.8675C15.0436 57.3664 15.0009 58.8616 14.9423 60.3605C14.9156 61.0452 14.873 61.7298 14.841 62.4145C14.777 63.7506 14.5904 65.0829 14.8143 66.419C14.8357 66.5485 14.825 66.6781 14.8197 66.8113C14.793 68.214 14.7664 69.6129 14.745 71.0156C14.7184 72.4479 14.6704 73.8839 14.6757 75.3162C14.6811 76.6855 14.7237 78.0549 14.5211 79.4206C14.4945 79.613 14.4998 79.8129 14.4945 80.0053C14.4785 80.7862 14.4465 81.5708 14.4572 82.3517C14.4892 84.4391 14.4518 86.5228 14.3878 88.6101C14.3399 90.1423 14.3505 91.6745 14.3239 93.2067C14.2919 94.9684 14.2439 96.7264 14.2119 98.488C14.1746 100.542 14.148 102.596 14.1053 104.65C14.0893 105.335 14.0307 106.016 13.9934 106.701C13.9827 106.926 13.9294 107.159 13.9614 107.382C14.1373 108.488 14.02 109.598 14.0413 110.705C14.068 112.074 13.7908 113.433 13.9081 114.806C13.9933 115.812 13.8707 116.823 13.8814 117.833C13.8974 119.202 13.6628 120.564 13.8121 121.934C13.8281 122.06 13.7695 122.193 13.7588 122.322C13.7428 122.515 13.7321 122.711 13.7268 122.903C13.7215 123.163 13.7641 123.425 13.7268 123.684C13.6522 124.173 13.6788 124.658 13.7001 125.146C13.7215 125.646 13.5669 126.149 13.7108 126.649V126.978C13.7055 127.015 13.6948 127.052 13.6895 127.089C13.6575 127.348 13.6095 127.607 13.5989 127.866C13.5775 128.455 13.5775 129.04 13.5722 129.628C13.5615 131.127 13.5455 132.626 13.5402 134.125C13.5349 134.872 13.5882 135.624 13.5455 136.371C13.4549 137.87 13.359 139.365 13.3643 140.864C13.375 142.689 13.343 144.517 13.279 146.342C13.1777 149.306 13.263 152.274 13.1297 155.239C12.9964 158.141 13.0337 161.042 13.0018 163.944C12.9804 166.223 12.9591 168.507 12.9485 170.787C12.9431 172.352 12.8258 173.914 12.9165 175.48C12.9218 175.609 12.9005 175.739 12.8898 175.868C12.8578 176.29 12.8045 176.712 12.7939 177.138C12.7779 177.982 12.8045 178.829 12.7779 179.673C12.7086 181.694 12.7086 183.714 12.6819 185.735C12.6606 187.497 12.6446 189.255 12.6126 191.016C12.5859 192.386 12.538 193.755 12.506 195.121C12.4793 196.294 12.4687 197.467 12.4473 198.64C12.4367 199.358 12.4047 200.076 12.3994 200.791C12.3887 201.864 12.458 202.945 12.3727 204.014C12.2661 205.317 12.4953 206.623 12.2554 207.922C12.2128 210.173 12.1754 212.419 12.1275 214.669C12.1061 215.646 12.0795 216.624 12.0368 217.604C12.0208 217.993 11.9356 218.385 11.9196 218.774C11.8662 220.239 11.8183 221.705 11.8023 223.171C11.7916 223.918 11.8502 224.669 11.8822 225.417C11.8929 225.68 11.9462 225.935 12.1915 226.154C12.4047 226.342 12.442 226.568 12.4527 226.801C12.4633 227.127 12.474 227.453 12.4793 227.778C12.4953 228.592 12.506 229.407 12.5273 230.225C12.538 230.617 12.5433 231.013 12.7246 231.387C12.8845 231.716 13.2203 231.931 13.7321 231.994C14.0787 232.031 14.3505 231.901 14.3505 231.69Z" fill="#B3C97D"/>
<path d="M0.921477 209.51C0.958794 209.022 0.996122 208.537 1.17205 208.06C1.53989 207.071 2.30224 206.279 3.5124 205.698C3.70432 205.606 3.90156 205.517 4.09348 205.425C4.94646 205.021 5.79944 204.618 6.65241 204.214C6.86033 204.118 7.0789 204.103 7.3188 204.163C7.72396 204.262 8.08115 204.403 8.39036 204.618C9.47257 205.373 10.2456 206.261 10.6134 207.294C10.896 208.086 11.0666 208.892 10.8107 209.714C10.7307 209.969 10.6827 210.232 10.6881 210.491C10.7041 211.428 10.2616 212.286 9.79776 213.137C9.41392 213.837 9.06742 214.547 8.53431 215.203C8.34772 215.428 8.20377 215.673 7.99586 215.887C7.47874 216.431 6.94031 216.964 6.40187 217.501C6.3219 217.582 6.23661 217.66 6.14065 217.73C5.57022 218.163 4.99978 218.593 4.42402 219.022C4.32806 219.092 4.21611 219.151 4.10416 219.211C3.92823 219.311 3.57104 219.226 3.53372 219.077C3.50706 218.948 3.47508 218.822 3.45909 218.693C3.21386 216.938 2.8087 215.203 2.08367 213.511C1.84377 212.949 1.56122 212.397 1.33198 211.831C1.03344 211.072 0.862834 210.299 0.921477 209.51ZM1.63053 209.607C1.63586 210.436 1.82244 211.331 2.09966 211.946C2.92065 213.748 3.58704 215.573 3.94422 217.453C3.97621 217.612 4.05617 217.767 4.12014 217.923C4.19477 218.093 4.47732 218.171 4.6799 218.071C4.94646 217.941 5.24501 217.827 5.45825 217.66C6.11931 217.157 6.76972 216.639 7.28683 216.057C7.70266 215.587 8.08115 215.099 8.47032 214.618C8.61426 214.44 9.78711 212.305 9.85641 212.068C10.2083 210.887 10.4588 209.703 10.3149 208.489C10.2136 207.664 9.8884 206.898 9.35529 206.161C8.99278 205.654 8.43835 205.258 7.87326 204.869C7.74531 204.781 7.56936 204.718 7.39877 204.662C7.03625 204.544 6.68975 204.536 6.34856 204.721C5.53823 205.162 4.73856 205.617 3.89091 206.02C2.90466 206.487 2.33957 207.138 2.00371 207.904C1.74781 208.496 1.59854 209.107 1.63053 209.607Z" fill="#B3C97D"/>
<path d="M11.4131 5.48595C11.1892 5.65249 10.9333 5.80053 10.7414 5.98558C9.91506 6.77759 9.10474 7.5733 8.29441 8.37272C7.43077 9.22765 7.11624 10.2047 7.04694 11.2299C6.98297 12.144 7.06825 13.0508 7.32414 13.9501C7.46275 14.4275 7.50007 14.9198 7.59603 15.4009C7.71332 15.9782 7.85192 16.5556 7.99053 17.1329C8.02785 17.2958 8.36904 17.355 8.55563 17.244C8.59295 17.2218 8.6356 17.2107 8.66759 17.1885C9.91507 16.3002 11.0293 15.3417 11.9729 14.2869C12.0955 14.15 12.2021 13.9982 12.2501 13.8428C12.3887 13.4246 12.6446 13.0434 12.9005 12.6622C13.0178 12.4845 13.167 12.3069 13.2044 12.1181C13.3536 11.315 13.5562 10.5119 13.4389 9.69027C13.3856 9.33497 13.3216 8.97598 13.343 8.62068C13.3909 7.82497 13.1724 7.06627 12.7725 6.32977C12.6926 6.17803 12.6019 6.02629 12.5326 5.87085C12.4793 5.74132 12.5007 5.61178 12.6446 5.51186C12.7619 5.43414 13.0604 5.54886 13.1937 5.71911C13.2843 5.83384 13.3909 5.94487 13.4496 6.067C13.7534 6.75169 14.0787 7.43267 14.0946 8.16176C14.1 8.35791 14.1 8.55406 14.1426 8.74652C14.3345 9.72358 14.2173 10.6932 14.0627 11.6666C14.0307 11.859 13.9774 12.0515 13.8921 12.2365C13.199 13.8206 11.9782 15.1936 10.4002 16.4261C9.55788 17.0811 8.7369 17.751 8.00654 18.469C7.86793 18.6059 7.56405 18.5837 7.40944 18.4357C7.20686 18.2469 7.06825 18.0397 7.1109 17.8028C7.21219 17.244 7.10557 16.6999 6.9563 16.1559C6.90299 15.9634 6.87633 15.7673 6.871 15.5748C6.84967 15.0197 6.73772 14.4719 6.52981 13.9353C6.22594 13.1359 6.34321 12.318 6.27924 11.5075C6.26858 11.3446 6.30057 11.1818 6.28991 11.0189C6.24726 10.0715 6.68976 9.23135 7.42012 8.44674C7.47343 8.39122 7.51607 8.33201 7.56938 8.28019C8.481 7.45487 9.39261 6.62955 10.3096 5.80793C10.4215 5.70801 10.5761 5.62289 10.7201 5.54146C10.9226 5.42673 11.1465 5.42303 11.3704 5.50815L11.4131 5.48595Z" fill="#B3C97D"/>
<path d="M16.8134 202.526C16.8773 202.563 16.9733 202.593 17.0053 202.641C17.1492 202.871 17.3891 203.004 17.741 203.045C18.5833 203.141 19.367 203.359 20.1506 203.577C21.2702 203.892 22.1445 204.414 22.8482 205.091C23.328 205.55 23.6318 206.057 23.7918 206.605C23.9784 207.241 24.2023 207.874 24.2449 208.529C24.2769 209.048 24.4422 209.558 24.4475 210.084C24.4475 210.935 24.3409 211.783 24.101 212.608C23.7012 213.981 23.3386 215.354 22.9974 216.734C22.9655 216.86 22.9015 216.986 22.8162 217.097C22.7842 217.138 22.6669 217.156 22.5816 217.171C22.5496 217.179 22.4857 217.16 22.4643 217.138C22.379 217.064 22.2777 216.99 22.2244 216.901C21.686 215.946 20.785 215.154 19.9107 214.347C19.4576 213.933 18.9725 213.533 18.5566 213.1C18.0342 212.56 17.5437 212.008 17.1652 211.405C16.6801 210.628 16.147 209.869 15.7365 209.07C15.3367 208.285 15.2407 207.482 15.3153 206.664C15.3313 206.472 15.3846 206.275 15.4486 206.087C15.6352 205.55 15.8378 205.013 16.035 204.477C16.147 204.184 16.1576 203.907 15.9337 203.629C15.7418 203.392 15.8911 203.174 16.2003 203.045C16.5095 202.915 16.6161 202.7 16.8134 202.526ZM23.989 210.258C23.9304 209.736 23.8504 209.281 23.8344 208.829C23.8078 208.041 23.5306 207.286 23.2267 206.535C23.1041 206.224 22.9015 205.924 22.6936 205.635C22.2618 205.036 21.574 204.584 20.753 204.258C19.8094 203.885 18.7805 203.659 17.6877 203.603C17.549 203.596 17.4051 203.607 17.2718 203.622C17.0746 203.644 16.9253 203.722 16.8347 203.84C16.744 203.955 16.6854 204.077 16.6214 204.199C16.2962 204.847 16.1843 205.528 16.003 206.198C15.7738 207.045 15.9444 207.871 16.3122 208.692C16.6481 209.44 17.1226 210.147 17.5437 210.868C18.2154 212.03 19.255 213.033 20.3426 214.011C20.913 214.525 21.5101 215.025 22.0325 215.565C22.1125 215.646 22.2138 215.713 22.3044 215.787C22.379 215.846 22.6189 215.82 22.6669 215.746C22.7469 215.628 22.8695 215.513 22.8748 215.391C22.9122 214.899 23.0934 214.429 23.2267 213.951C23.3866 213.378 23.5732 212.804 23.6905 212.227C23.8344 211.553 23.9037 210.872 23.989 210.258Z" fill="#B3C97D"/>
<path d="M6.26337 86.5453C6.29002 86.3269 6.26871 86.09 6.35401 85.8754C6.62589 85.2203 6.85513 84.543 7.2603 83.925C7.70278 83.2477 8.3265 82.6259 8.87027 81.9782C8.91825 81.9227 8.98224 81.8746 9.04088 81.8228C9.3874 81.5304 9.8512 81.4749 10.283 81.6785C10.5123 81.7895 10.7575 81.9005 10.9334 82.0486C11.4079 82.452 11.8717 82.8628 12.2929 83.2921C12.7727 83.7843 12.9486 84.3691 13.1725 84.9279C13.423 85.5571 13.5243 86.2048 13.551 86.8598C13.5777 87.4779 13.6256 88.096 13.7003 88.7103C13.8015 89.532 13.5883 90.3314 13.3697 91.1308C13.1511 91.9339 12.7726 92.7037 12.3568 93.4661C12.0423 94.0435 11.6904 94.6134 11.4665 95.213C11.4345 95.3055 11.3386 95.3832 11.2746 95.4683C11.2266 95.5276 10.9601 95.5498 10.8961 95.4942C10.8108 95.4202 10.7095 95.3462 10.6509 95.2574C10.5762 95.139 10.5282 95.0131 10.4963 94.8873C10.3203 94.2063 9.9685 93.5697 9.49936 92.9665C8.79032 92.0449 8.21456 91.0827 7.65479 90.1167C7.13234 89.2137 6.71117 88.2773 6.41263 87.3225C6.34332 87.0745 6.31668 86.8117 6.26337 86.5453ZM11.1626 94.0694C11.216 94.0546 11.2746 94.0509 11.3013 94.0286C11.6478 93.7215 11.9463 93.3921 12.1063 93.0146C12.4155 92.304 12.8633 91.6082 12.7513 90.8347C12.7353 90.7422 12.794 90.6423 12.81 90.546C12.8846 90.1278 13.0392 89.7059 13.0072 89.2877C12.9326 88.2218 13.1938 87.1374 12.7566 86.0863C12.746 85.4572 12.4155 84.8724 12.1276 84.2951C11.6744 83.3809 10.8321 82.6481 9.7126 82.0708C9.62731 82.0264 9.40873 82.0486 9.33409 82.1152C9.0782 82.3446 8.77965 82.5519 8.63571 82.8369C8.54508 83.0182 8.39581 83.1885 8.26253 83.3587C7.66012 84.1359 7.26028 84.9686 6.92442 85.8162C6.87644 85.9383 6.82314 86.0789 6.86046 86.1974C7.03639 86.8006 7.06836 87.4187 7.37756 88.0071C8.10259 89.3802 8.78499 90.7644 9.76058 92.0634C9.88852 92.2337 9.96316 92.4261 10.0804 92.6038C10.3737 93.0442 10.6775 93.4846 10.9867 93.9213C11.0187 93.9842 11.0987 94.025 11.1626 94.0694Z" fill="#B3C97D"/>
<path d="M23.0029 3.94238C23.0243 3.96459 23.0723 3.9905 23.0669 4.0127C23.0136 4.33099 22.9763 4.65297 22.8963 4.97126C22.811 5.32285 22.7044 5.67444 22.5924 6.02234C22.4911 6.34062 22.4165 6.66631 22.2513 6.96979C21.9101 7.58785 22.0273 8.18001 22.3312 8.77957C22.6884 9.49016 23.1309 10.1711 23.6853 10.8151C23.9732 11.1519 24.2611 11.485 24.5543 11.8218C24.9648 12.2992 25.4019 12.7544 25.9351 13.1763C26.4895 13.6168 26.9799 14.0942 27.5077 14.5494C27.8916 14.8788 28.2914 15.1971 28.6859 15.5191C28.7445 15.5672 28.8298 15.6079 28.9151 15.6264C28.9951 15.6412 29.107 15.6412 29.1764 15.6153C29.2457 15.5894 29.3096 15.5302 29.3416 15.4747C29.3736 15.4154 29.3843 15.3451 29.379 15.2822C29.2937 14.0794 29.347 12.8729 29.1391 11.6737C28.8938 10.2378 28.3287 8.8721 27.4598 7.56565C27.2252 7.21406 26.964 6.86246 26.6601 6.53678C26.079 5.90021 25.3913 5.32655 24.405 4.96015C24.2451 4.90094 24.1171 4.79731 23.9839 4.70849C23.9572 4.69368 23.9572 4.63077 23.9785 4.61596C24.0372 4.57525 24.1172 4.51604 24.1811 4.51974C24.3144 4.52714 24.4637 4.55305 24.5703 4.60486C24.8742 4.7529 25.1834 4.90834 25.4553 5.08229C26.1483 5.5227 26.7454 6.02604 27.3265 6.54048C27.5291 6.71812 27.7156 6.91427 27.8489 7.11783C28.9631 8.78697 29.6988 10.5227 29.8801 12.3695C29.9707 13.2763 30.12 14.183 30.0986 15.0972C30.0827 15.6486 30.0613 16.2038 30.024 16.7552C30.0187 16.844 29.928 16.9365 29.8427 17.0069C29.7948 17.0439 29.6722 17.0624 29.5922 17.0513C29.5122 17.0402 29.4323 16.9921 29.3736 16.9476C28.4193 16.2741 27.5717 15.5339 26.756 14.7789C25.9404 14.0239 25.0981 13.2837 24.2664 12.5361C24.0052 12.3029 23.7813 12.0623 23.6 11.7922C23.4188 11.5294 23.1735 11.2888 22.9603 11.0372C22.3152 10.2785 21.7448 9.49386 21.4249 8.63523C21.3076 8.31325 21.265 7.99126 21.3556 7.66928C21.4409 7.35099 21.5422 7.02901 21.6755 6.71812C22.054 5.84469 22.4485 4.97866 22.843 4.10893C22.8697 4.03861 22.9496 3.9942 23.0029 3.94238Z" fill="#B3C97D"/>
<path d="M7.63345 148.274C7.70275 148.241 7.75606 148.174 7.78805 148.115C8.17722 147.349 8.53972 146.576 8.94488 145.813C9.2061 145.325 9.52066 144.851 9.8192 144.374C10.0431 144.015 10.3096 143.67 10.5229 143.308C11.4505 141.731 12.1702 140.117 12.1596 138.393C12.1542 137.904 12.1169 137.416 12.0956 136.927C12.0636 136.302 11.829 135.71 11.5411 135.121C11.2479 134.518 10.7521 134.014 10.0431 133.615C9.74455 133.445 9.44602 133.278 9.15281 133.108C9.13682 133.097 9.12083 133.086 9.0995 133.078C9.09417 133.074 9.08349 133.071 9.07816 133.067C9.07283 133.067 9.07284 133.067 9.06751 133.067C8.87559 133.011 8.66235 133.182 8.53974 133.285C8.33715 133.463 8.1079 133.618 7.90531 133.792C7.36154 134.074 6.87643 134.399 6.40196 134.732C5.67693 135.236 5.29842 135.858 5.14915 136.55C5.05852 136.968 4.96789 137.39 4.93057 137.812C4.83461 138.885 4.79196 139.962 5.11716 141.02C5.36239 141.816 5.61296 142.608 5.90084 143.396C6.27402 144.403 6.54056 145.432 6.87642 146.446C7.02569 146.894 7.11632 147.342 7.08967 147.801C7.079 147.963 7.11633 148.126 7.26027 148.263C7.28693 148.285 7.34023 148.308 7.38288 148.308C7.46817 148.308 7.56947 148.308 7.63345 148.274ZM7.67609 146.331C7.46817 146.187 7.38287 146.002 7.32423 145.81C7.08433 145.014 6.75913 144.233 6.54588 143.433C6.3433 142.667 6.08743 141.905 5.82087 141.146C5.66094 140.698 5.59162 140.247 5.59162 139.792C5.58629 139.077 5.57031 138.359 5.62895 137.645C5.67693 137.094 5.82086 136.546 5.94348 136.002C5.9808 135.846 6.0501 135.676 6.18338 135.547C6.58854 135.154 6.91373 134.721 7.47883 134.403C7.83068 134.203 8.18787 133.989 8.44376 133.718C8.47575 133.696 8.50775 133.67 8.53974 133.648C8.56106 133.63 8.60371 133.604 8.64636 133.57C8.80096 133.593 8.95554 133.611 9.10481 133.641C9.47266 133.718 9.77653 133.863 10.0111 134.081C10.3789 134.425 10.6029 134.818 10.8588 135.202C11.3172 135.898 11.5731 136.609 11.4665 137.379C11.4345 137.601 11.4612 137.838 11.5198 138.06C11.7704 139.014 11.5305 139.943 11.1786 140.858C10.7788 141.894 10.251 142.904 9.56863 143.874C9.05684 144.603 8.64634 145.369 8.17721 146.113C8.12389 146.198 8.01729 146.268 7.92666 146.339C7.83603 146.398 7.75072 146.387 7.67609 146.331Z" fill="#B3C97D"/>
<path d="M10.8213 113.544C10.7893 112.992 10.8266 112.437 10.576 111.897C10.3895 111.49 10.2029 111.09 9.77104 110.772C9.69107 110.712 9.71775 110.642 9.81371 110.601C9.84569 110.587 9.90967 110.587 9.94698 110.598C10.5121 110.735 10.9066 110.994 11.0719 111.401C11.1092 111.493 11.1838 111.582 11.1998 111.678C11.4024 112.711 11.573 113.744 11.397 114.795C11.1944 116.005 10.7253 117.156 9.93631 118.244C9.60045 118.71 9.30191 119.188 8.98205 119.661C8.12907 120.935 7.10551 122.141 6.0073 123.318C5.95932 123.37 5.87935 123.411 5.81538 123.459C5.73541 123.518 5.5275 123.496 5.4422 123.422C5.26094 123.266 5.12765 123.096 5.13832 122.889C5.14365 122.759 5.133 122.622 5.17564 122.5C5.43154 121.775 5.23427 121.079 4.94639 120.387C4.81311 120.076 4.69584 119.758 4.52524 119.454C3.94415 118.407 3.64028 117.33 3.72557 116.205C3.75223 115.879 3.75756 115.553 3.75223 115.228C3.73624 114.432 4.04011 113.681 4.39196 112.933C4.56789 112.559 4.82911 112.208 5.21828 111.919C6.27384 111.131 7.40938 110.402 8.64086 109.75C8.6995 109.717 8.81145 109.724 8.89675 109.728C8.99804 109.732 8.95007 109.872 8.8008 109.969C8.6995 110.035 8.58756 110.098 8.48627 110.165C7.73458 110.653 7.0042 111.16 6.27917 111.671C5.26626 112.382 4.75982 113.237 4.5679 114.184C4.34933 115.279 4.26934 116.386 4.5199 117.496C4.59454 117.818 4.67984 118.137 4.81845 118.448C5.26626 119.443 5.74607 120.431 5.94332 121.471C5.95931 121.564 6.05526 121.649 6.11923 121.734C6.16188 121.793 6.43911 121.815 6.50308 121.767C6.56706 121.719 6.6417 121.678 6.69501 121.623C7.50001 120.742 8.24637 119.839 8.8861 118.895C9.28593 118.307 9.66975 117.711 9.98429 117.097C10.576 115.949 10.8799 114.765 10.8213 113.544Z" fill="#B3C97D"/>
<path d="M10.3682 29.9868C10.4535 30.1534 10.4268 30.3051 10.2722 30.4457C9.96303 30.7307 9.65914 31.0194 9.3446 31.3044C8.5556 32.0113 8.11845 32.8366 7.71861 33.673C7.63332 33.8543 7.59067 34.0542 7.59067 34.2467C7.58534 35.1608 7.60667 36.0712 7.61733 36.9854C7.92653 37.9328 7.90521 38.9247 8.41699 39.8499C8.85414 40.642 9.19533 41.4562 9.37126 42.3C9.38725 42.3888 9.47789 42.4813 9.56852 42.5517C9.61117 42.585 9.73379 42.5739 9.81909 42.5702C9.85641 42.5702 9.90438 42.5369 9.92038 42.511C10.2189 42.0298 10.6134 41.5931 11.0666 41.1712C11.4344 40.8307 11.6316 40.4236 11.8502 40.0276C11.9195 39.243 12.4153 38.5213 12.5699 37.7478C12.6659 37.263 12.9218 36.7966 12.8898 36.3044C12.8578 35.8492 12.9644 35.4014 12.9911 34.9461C13.0284 34.354 12.8951 33.7766 12.7085 33.2067C12.4526 32.4147 12.2021 31.619 11.589 30.9047C11.4504 30.7418 11.3971 30.5383 11.3118 30.3532C11.2691 30.257 11.3598 30.1423 11.4877 30.1275C11.637 30.109 11.7649 30.1386 11.8502 30.2274C11.9035 30.2829 11.9782 30.3273 12.0102 30.3865C12.394 31.0527 12.8098 31.7078 13.0391 32.411C13.0604 32.4739 13.071 32.5405 13.103 32.5997C13.7534 33.8617 13.5828 35.2126 13.3483 36.4672C13.247 37.015 13.1137 37.5627 13.0284 38.1142C12.8152 39.4687 12.0955 40.7012 11.1199 41.8633C10.4535 42.6516 9.82442 43.451 9.25932 44.2726C9.22201 44.3281 9.14202 44.3688 9.08338 44.417C9.02474 44.4651 8.73154 44.4466 8.69956 44.3837C8.61959 44.2319 8.5023 44.0765 8.5023 43.9247C8.50763 43.6323 8.55028 43.3363 8.64091 43.0513C8.75286 42.6886 8.70487 42.3481 8.60358 41.9891C8.48097 41.5376 8.33703 41.0972 8.07581 40.6753C7.60134 39.9203 7.43608 39.1097 7.22283 38.314C6.88697 37.0594 6.9083 35.7826 6.95628 34.5131C7.00959 33.1216 7.71861 31.9113 9.13136 30.9084C9.55784 30.6049 9.98433 30.3014 10.4108 29.9979L10.3682 29.9868Z" fill="#B3C97D"/>
<path d="M29.4376 62.9467C29.363 61.892 29.0484 60.9445 28.5527 60.0267C28.1262 59.2346 27.641 58.4611 27.028 57.7246C26.7934 57.4397 26.5482 57.1695 26.1857 56.9511C25.9404 56.8031 25.7325 56.6217 25.5033 56.4589C25.0714 56.1554 24.5916 55.9075 24.0639 55.6817C22.5711 55.0451 20.9612 54.6158 19.2712 54.3086C18.962 54.2531 18.6688 54.1384 18.3702 54.0422C18.2476 54.0014 18.1836 53.8719 18.2476 53.7905C18.3169 53.7017 18.4129 53.6313 18.5675 53.6313C18.6581 53.6313 18.7541 53.6388 18.8394 53.6573C19.8096 53.8941 20.7746 54.1606 21.7555 54.3715C23.1309 54.6676 24.2878 55.2043 25.386 55.826C25.5299 55.9075 25.6579 56.0037 25.8071 56.0888C27.2679 56.9252 28.1048 58.0392 28.7606 59.242C29.2937 60.2228 29.6029 61.2406 29.8214 62.2732C30.0134 63.1836 30.3546 64.057 30.8397 64.9083C30.8877 64.9971 30.9037 65.0933 30.9303 65.1895C30.9623 65.3117 30.7331 65.4449 30.5678 65.4116C30.2426 65.345 29.9707 65.2265 29.7522 65.0452C29.331 64.6936 28.8725 64.3716 28.3874 64.0644C27.5877 63.5537 26.6974 63.1355 25.8391 62.684C24.6823 62.0733 23.4988 61.4922 22.4112 60.8187C21.8514 60.4745 21.249 60.1488 20.7639 59.7565C19.3618 58.6388 18.5195 57.3582 18.6368 55.8371C18.6581 55.5448 18.6954 55.2524 18.7434 54.96C18.7541 54.9119 18.8394 54.8638 18.898 54.8194C18.9886 54.7528 19.1006 54.8527 19.1059 55.0118C19.1219 55.3708 19.1592 55.7298 19.1433 56.0851C19.1219 56.6921 19.3618 57.2546 19.7457 57.7765C20.3641 58.6203 21.0944 59.416 22.1713 60.0267C22.2779 60.0896 22.3686 60.1673 22.4805 60.2265C23.9306 61.0037 25.2954 61.8475 26.7934 62.5803C27.5238 62.9356 28.2221 63.3205 28.9365 63.6906C29.0111 63.7276 29.0911 63.7684 29.1764 63.7869C29.2617 63.8054 29.3736 63.8202 29.4429 63.7943C29.5069 63.7721 29.5709 63.6906 29.5656 63.6425C29.5336 63.3908 29.4749 63.1355 29.4376 62.9467Z" fill="#B3C97D"/>
<path d="M17.8105 86.6593C17.8159 86.5779 17.8159 86.478 17.8318 86.3818C18.0664 85.1234 18.3543 83.8725 18.7595 82.6327C18.7808 82.5735 18.8448 82.5179 18.8927 82.4624C19.0047 82.3181 19.2819 82.233 19.4792 82.2811C19.9216 82.3847 20.3481 82.5142 20.7373 82.703C23.4508 84.0464 24.9809 85.8673 25.354 88.1582C25.5673 89.4536 25.6472 90.7489 25.6419 92.0517C25.6419 92.8955 25.7539 93.7393 25.8072 94.5869C25.8285 94.9088 25.8445 95.2308 25.8392 95.5565C25.8392 95.5935 25.7166 95.6564 25.6419 95.6638C25.5619 95.675 25.4606 95.6453 25.3913 95.612C25.3167 95.575 25.2528 95.5195 25.2208 95.464C24.6343 94.498 23.7494 93.6542 22.9444 92.7771C22.8218 92.6401 22.6618 92.5217 22.5072 92.3996C21.6916 91.7704 20.9665 91.0931 20.1775 90.4492C19.3565 89.7793 18.7808 88.9873 18.2263 88.1953C17.8905 87.7215 17.7945 87.2034 17.8105 86.6593ZM18.4449 86.7149C18.5675 87.1849 18.5889 87.7437 19.0154 88.2397C19.7404 89.0761 20.4601 89.9125 21.3664 90.6675C22.4432 91.5669 23.5681 92.4477 24.3998 93.4766C24.5064 93.6135 24.7196 93.7134 24.8956 93.8134C24.9275 93.8319 25.0875 93.7911 25.1195 93.7504C25.1781 93.6653 25.2101 93.5654 25.2154 93.4729C25.3327 91.7075 25.0875 89.9606 24.7623 88.2138C24.725 88.0213 24.6876 87.8252 24.6237 87.6364C24.4957 87.2552 24.4318 86.8555 24.2025 86.5076C23.6214 85.6157 22.923 84.7718 21.9528 84.0464C21.329 83.5801 20.5934 83.2507 19.7617 83.0102C19.5005 82.9325 19.1859 83.0509 19.1273 83.2618C18.946 83.9021 18.7488 84.5387 18.6155 85.1827C18.5142 85.6638 18.5036 86.156 18.4449 86.7149Z" fill="#B3C97D"/>
<path d="M21.7129 29.7571C21.6489 30.2567 21.5956 30.6453 21.553 31.0302C21.5157 31.3226 21.489 31.615 21.457 31.9073C21.3024 33.2397 21.7289 34.4906 22.5019 35.7008C22.8485 36.2375 23.211 36.763 23.6801 37.2553C23.7601 37.3367 23.8294 37.4218 23.8934 37.5106C24.1599 37.8881 24.3518 38.3063 24.709 38.6357C25.0502 38.9503 25.2954 39.2982 25.5886 39.6276C25.8339 39.9052 26.0844 40.179 26.3616 40.4418C26.4309 40.5084 26.5856 40.5491 26.7135 40.5713C26.8255 40.5935 27.0334 40.427 27.06 40.3049C27.124 39.9829 27.1986 39.6609 27.2253 39.3352C27.2466 39.0428 27.2946 38.7542 27.3426 38.4618C27.4012 38.0769 27.3746 37.6846 27.3479 37.296C27.3212 36.8741 27.2413 36.4521 27.2093 36.0302C27.1347 34.9088 26.7455 33.8503 25.9565 32.8622C25.5033 32.2922 25.0822 31.7112 24.6504 31.1301C24.4744 30.897 24.2505 30.6971 23.9786 30.5121C23.5095 30.1938 23.067 29.857 22.6139 29.5276C22.5233 29.461 22.5233 29.3129 22.6352 29.2685C22.7472 29.2204 22.8964 29.1797 23.0137 29.1908C23.1417 29.2019 23.2643 29.2759 23.3709 29.3351C24.1119 29.7497 24.677 30.2715 25.1515 30.8303C25.7219 31.5039 26.271 32.1849 26.7615 32.8881C27.0494 33.2952 27.2466 33.7356 27.4172 34.1723C28.0409 35.7564 28.2915 37.37 27.9823 39.0095C27.8064 39.9459 27.6198 40.8785 27.4385 41.8149C27.4332 41.8482 27.4119 41.8778 27.4065 41.9111C27.3746 42.0184 27.092 42.0665 26.9321 41.9925C26.6069 41.8519 26.3617 41.6705 26.1857 41.4263C25.7059 40.7564 25.2048 40.0939 24.709 39.4277C24.6024 39.2834 24.4958 39.1354 24.3678 39.0021C23.5095 38.1065 22.7951 37.1553 22.0221 36.2301C21.2118 35.2641 20.9239 34.2353 20.8653 33.1546C20.812 32.1738 20.9506 31.2041 21.2971 30.2493C21.3504 30.0938 21.3771 29.9236 21.7129 29.7571Z" fill="#B3C97D"/>
<path d="M17.6292 111.83C17.6452 111.423 17.7678 110.942 18.029 110.487C18.3222 109.973 18.6581 109.473 18.9886 108.966C19.1059 108.785 19.4311 108.699 19.6976 108.77C20.1348 108.884 20.5773 108.995 21.0091 109.118C22.118 109.436 23.0562 109.924 23.7493 110.598C24.2664 111.098 24.6929 111.645 25.0288 112.219C25.1887 112.489 25.3326 112.767 25.5086 113.033C25.7485 113.392 25.8871 113.762 25.967 114.155C26.127 114.928 26.2975 115.698 26.5108 116.464C26.6814 117.078 26.7081 117.689 26.7081 118.311C26.7027 118.862 26.724 119.417 26.7294 119.969C26.7294 120.132 26.4415 120.246 26.2176 120.161C26.0523 120.102 25.8764 120.043 25.7431 119.954C25.5779 119.843 25.4553 119.699 25.306 119.573C23.712 118.204 21.974 116.93 20.1455 115.709C19.7776 115.461 19.4471 115.184 19.1166 114.91C18.0397 114.021 17.6825 112.778 17.6292 111.83ZM18.3275 111.96C18.3222 111.893 18.3169 112.056 18.3489 112.219C18.5568 113.278 19.1645 114.214 20.1934 115.01C20.5986 115.324 21.0411 115.617 21.4729 115.913C22.3739 116.527 23.2855 117.13 24.1225 117.793C24.5863 118.155 25.1034 118.489 25.5992 118.829C25.6898 118.892 25.935 118.87 25.9617 118.796C26.1056 118.422 26.2976 118.033 26.1963 117.656C26.0683 117.178 26.0363 116.694 25.903 116.212C25.7591 115.705 25.5512 115.206 25.4126 114.699C25.2633 114.158 25.0661 113.622 24.8742 113.085C24.6609 112.486 24.4317 111.886 23.7333 111.446C23.632 111.383 23.5574 111.294 23.4881 111.209C23.1202 110.742 22.5498 110.402 22.0113 110.043C21.4303 109.658 20.7052 109.417 19.9482 109.24C19.6124 109.158 19.2925 109.273 19.1166 109.48C18.834 109.824 18.7807 110.22 18.5781 110.583C18.3702 110.953 18.3169 111.338 18.3275 111.96Z" fill="#B3C97D"/>
<path d="M7.6761 159.71C7.95332 159.91 8.11325 160.147 8.44378 160.28C9.12616 160.557 9.47268 161.024 9.77655 161.505C9.88851 161.683 9.98446 161.871 10.0378 162.06C10.2723 162.926 10.4643 163.796 10.2404 164.68C10.0911 165.258 9.93649 165.835 9.78189 166.409C9.68593 166.76 9.5793 167.112 9.47801 167.46C9.23811 168.289 8.89159 169.099 8.51841 169.906C8.31583 170.347 7.94799 170.724 7.64945 171.131C6.97773 172.06 6.27403 172.974 5.57565 173.896C5.55433 173.922 5.49035 173.951 5.4637 173.944C5.3784 173.929 5.25578 173.911 5.2238 173.866C5.11717 173.726 4.99457 173.574 4.96791 173.418C4.77066 172.116 4.24288 170.865 3.76308 169.606C3.41656 168.692 3.12334 167.771 2.98473 166.831C2.83546 165.82 2.85678 164.814 3.16598 163.818C3.45386 162.904 4.04029 162.104 5.03721 161.461C5.27711 161.305 5.50634 161.142 5.75691 160.994C6.29002 160.672 6.81246 160.347 7.24428 159.958C7.35623 159.858 7.52683 159.795 7.6761 159.71ZM3.60315 165.842C3.59248 166.768 3.78439 167.667 4.12025 168.552C4.32283 169.085 4.52009 169.621 4.71734 170.154C4.94658 170.783 5.17048 171.412 5.40505 172.042C5.45303 172.167 5.52767 172.286 5.59697 172.404C5.66095 172.512 5.95949 172.526 6.07677 172.438C6.14075 172.39 6.22072 172.349 6.2687 172.297C7.0577 171.412 7.63347 170.454 8.21989 169.499C8.23588 169.469 8.23055 169.432 8.24654 169.403C8.69436 168.448 9.01422 167.467 9.31276 166.486C9.48869 165.917 9.58998 165.332 9.68594 164.754C9.80322 164.04 9.65926 163.33 9.58463 162.615C9.494 161.757 8.85427 161.087 8.14523 160.439C7.91599 160.232 7.41488 160.213 7.14299 160.409C6.49793 160.876 5.78888 161.309 5.23978 161.838C4.94124 162.127 4.64803 162.423 4.3868 162.73C4.22154 162.922 4.06161 163.133 3.99231 163.352C3.73641 164.173 3.44321 164.999 3.60315 165.842Z" fill="#B3C97D"/>
<path d="M11.8823 57.0742C11.8237 56.1711 11.7597 55.2607 11.4238 54.3725C11.3865 54.2725 11.4878 54.1911 11.6211 54.1467C11.733 54.1097 11.9463 54.1504 11.9996 54.2244C12.1169 54.3984 12.2875 54.5686 12.3301 54.7537C12.5274 55.5901 12.65 56.4191 12.5434 57.2777C12.4314 58.1549 12.2395 59.0209 12.0689 59.8906C11.861 60.9528 11.4825 61.9928 10.8001 62.9736C10.251 63.7656 9.74986 64.5724 9.22208 65.3681C8.96619 65.7567 8.77961 66.1564 8.67299 66.5746C8.66233 66.6227 8.56102 66.6708 8.49171 66.7041C8.39575 66.7486 8.18784 66.7041 8.11854 66.6264C7.99059 66.4895 7.84132 66.3599 7.75069 66.2156C7.53212 65.8566 7.31354 65.4939 7.13762 65.1238C6.67381 64.1357 6.26333 63.1327 5.84217 62.1371C5.44767 61.2045 5.21842 60.2348 5.24508 59.2541C5.25041 59.0283 5.28774 58.7988 5.36771 58.5805C5.69823 57.6811 6.36993 56.9002 7.18559 56.1785C7.53745 55.8677 8.01726 55.6567 8.47573 55.4309C8.70497 55.3199 8.93955 55.2163 9.17945 55.1127C9.2061 55.1016 9.27005 55.1164 9.29138 55.1312C9.31803 55.1497 9.33403 55.1978 9.31803 55.2089C8.92886 55.4865 8.53971 55.764 8.13988 56.0342C7.90531 56.1933 7.6494 56.3377 7.40417 56.4894C7.12162 56.6671 6.90305 56.8743 6.76978 57.126C6.67382 57.3073 6.56186 57.4887 6.42325 57.6589C6.0874 58.066 5.94879 58.5028 5.9168 58.9654C5.86349 59.7833 5.93279 60.5938 6.28464 61.3821C6.57785 62.0372 6.80176 62.6997 7.00434 63.3696C7.20159 64.0098 7.58543 64.6057 7.9586 65.2015C8.05989 65.3644 8.39043 65.3829 8.52904 65.2423C8.5557 65.2164 8.58769 65.1904 8.61434 65.1645C9.13679 64.5465 9.6539 63.9284 9.98976 63.2474C10.0964 63.0328 10.2083 62.8181 10.3523 62.6109C10.8961 61.8077 11.1679 60.9528 11.3919 60.0868C11.5145 59.6057 11.6371 59.1245 11.7384 58.6434C11.8077 58.2918 11.845 57.9328 11.8823 57.5775C11.8983 57.4073 11.8823 57.2444 11.8823 57.0742Z" fill="#B3C97D"/>
<path d="M27.5823 144.292C27.6462 144.258 27.6995 144.184 27.7102 144.125C27.8488 143.318 28.0034 142.512 28.094 141.701C28.1793 140.924 28.1634 140.139 28.254 139.358C28.318 138.799 28.254 138.248 28.1047 137.708C27.9501 137.134 27.7369 136.564 27.497 136.005C27.2997 135.55 27.0172 135.113 26.6547 134.71C26.6493 134.699 26.644 134.684 26.628 134.669C26.4148 134.447 26.1962 134.225 25.9776 134.003C25.8337 133.855 25.6951 133.7 25.5085 133.574C25.1566 133.255 24.7941 132.945 24.3196 132.7C24.0584 132.567 23.8398 132.397 23.6052 132.245C22.6137 131.605 21.5794 131.009 20.4759 130.461C20.2787 130.365 20.0548 130.324 19.8149 130.343C19.7456 130.346 19.6762 130.398 19.6229 130.435C19.6069 130.446 19.6336 130.502 19.6656 130.517C20.6252 131.027 21.5794 131.546 22.5497 132.045C23.408 132.493 24.2183 132.974 24.938 133.529C25.1299 133.677 25.3379 133.811 25.5458 133.944C25.6204 134.018 25.6897 134.092 25.7643 134.166C25.9189 134.325 26.0682 134.48 26.2228 134.64C26.2815 134.732 26.3454 134.821 26.4148 134.906C26.7613 135.335 27.0278 135.787 27.2464 136.25C27.6836 137.182 27.9874 138.126 27.8168 139.125C27.7262 139.673 27.7209 140.232 27.7155 140.783C27.7102 141.405 27.5609 142.016 27.401 142.623C27.3903 142.652 27.353 142.678 27.337 142.708C27.2944 142.785 27.0492 142.822 26.9745 142.76C26.4254 142.275 25.8657 141.794 25.3325 141.305C24.197 140.269 23.0775 139.221 21.814 138.259C20.7904 137.478 19.9854 136.612 19.527 135.602C19.4843 135.509 19.4523 135.413 19.399 135.324C18.8926 134.499 18.7646 133.629 18.8019 132.741C18.8286 132.123 18.8499 131.505 18.8659 130.883C18.8659 130.809 18.8286 130.735 18.8019 130.631C18.738 130.694 18.7007 130.717 18.69 130.746C18.3755 131.638 18.3115 132.552 18.2955 133.463C18.2742 134.488 18.6153 135.461 19.2604 136.39C19.7722 137.13 20.3959 137.811 21.1849 138.422C22.7256 139.606 24.0851 140.898 25.5191 142.145C26.1109 142.66 26.5853 143.211 26.8679 143.84C26.9532 144.029 27.0652 144.21 27.3317 144.31C27.401 144.34 27.5236 144.325 27.5823 144.292Z" fill="#B3C97D"/>
<path d="M11.3862 5.50614L11.3645 5.43799C11.3645 5.43799 11.4078 5.48342 11.4132 5.48342C11.4132 5.48721 11.3862 5.50614 11.3862 5.50614Z" fill="#B3C97D"/>
<path d="M10.3885 30.0058L10.4642 30.055C10.4642 30.055 10.3777 29.9982 10.3723 29.9945C10.3669 29.9869 10.3885 30.0058 10.3885 30.0058Z" fill="#B3C97D"/>
<path d="M22.859 172.141C22.9283 172.119 22.9923 172.049 22.9976 171.997C23.0029 171.901 22.9709 171.805 22.9389 171.712C22.6937 170.946 22.5604 170.172 22.6671 169.392C22.8057 168.385 22.779 167.378 22.811 166.372C22.859 164.921 22.4592 163.537 21.6542 162.193C21.4516 161.853 21.2117 161.538 20.9131 161.257C20.9078 161.246 20.9025 161.238 20.8918 161.227C20.3267 160.672 19.7296 160.165 18.914 159.787C18.8713 159.762 18.8287 159.732 18.786 159.702C18.3009 159.358 17.7304 159.173 17.0214 159.225C16.8348 159.24 16.6482 159.236 16.4616 159.221C15.9978 159.192 15.9125 159.34 15.8806 159.521C15.7046 160.454 15.55 161.39 15.4807 162.334C15.4114 163.244 15.4221 164.155 15.5767 165.058C15.6993 165.772 15.9499 166.449 16.5523 167.064C17.0854 167.608 17.6825 168.092 18.3969 168.522C18.786 168.755 19.1539 169.01 19.5004 169.273C20.0068 169.654 20.476 170.065 20.9824 170.443C21.4676 170.802 21.8994 171.172 22.1286 171.653C22.2139 171.827 22.4272 171.975 22.6084 172.123C22.6457 172.156 22.7897 172.164 22.859 172.141ZM21.7554 170.372C21.4676 170.161 21.1424 169.961 20.9131 169.725C20.4866 169.288 19.9535 168.929 19.3991 168.577C19.0206 168.337 18.6314 168.104 18.2636 167.852C17.5226 167.345 16.9734 166.742 16.5256 166.09C16.4457 165.976 16.3604 165.853 16.3337 165.728C16.2058 165.021 15.9872 164.321 16.0192 163.599C16.0618 162.593 16.0405 161.586 16.0352 160.579C16.0352 160.283 16.0885 159.998 16.2537 159.721C16.371 159.521 16.7549 159.358 17.0534 159.421C17.4106 159.491 17.7731 159.569 18.0983 159.691C18.5088 159.843 18.882 160.043 19.2765 160.217C19.2925 160.224 19.3085 160.228 19.3245 160.235C19.7616 160.502 20.1348 160.813 20.4866 161.146C20.9771 161.686 21.297 162.282 21.6382 162.87C21.7075 162.989 21.7608 163.115 21.7927 163.244C21.9953 164.11 22.1926 164.976 22.3845 165.842C22.4058 165.938 22.4272 166.038 22.4218 166.135C22.3792 167.045 22.3738 167.956 22.2779 168.862C22.2299 169.317 22.2139 169.765 22.2512 170.217C22.2566 170.272 22.1873 170.335 22.1393 170.387C22.0806 170.443 21.8407 170.435 21.7554 170.372Z" fill="#B3C97D"/>
<path d="M23.5415 195.838C23.5682 195.835 23.6002 195.783 23.6002 195.753C23.5842 195.594 23.6001 195.428 23.5362 195.272C23.2003 194.439 23.3069 193.592 23.3816 192.748C23.6695 192.189 23.6428 191.593 23.8027 191.02C24.048 190.146 23.9787 189.269 23.7867 188.396C23.5575 187.352 22.9444 186.401 22.278 185.468C22.1767 185.324 22.0435 185.187 21.9102 185.054C21.7769 184.917 21.617 184.802 21.4197 184.721C20.9932 184.473 20.5667 184.217 20.1243 183.98C19.6445 183.725 19.09 183.573 18.5463 183.403C18.5409 183.399 18.5409 183.399 18.5356 183.396C18.4983 183.37 18.4503 183.351 18.397 183.344C18.2371 183.322 18.1358 183.444 18.2424 183.529C18.349 183.614 18.4876 183.677 18.6422 183.718C18.6582 183.721 18.6742 183.721 18.6902 183.721C18.9941 183.843 19.2926 183.932 19.5645 184.043C19.6711 184.088 19.7937 184.117 19.9164 184.147C19.9217 184.151 19.927 184.151 19.9323 184.154C20.3642 184.384 20.78 184.632 21.1958 184.876C21.601 185.209 21.9208 185.583 22.2194 185.971C22.5712 186.43 22.9338 186.882 23.1043 187.396C23.4136 188.318 23.5682 189.251 23.5468 190.198C23.5362 190.72 23.3976 191.227 23.243 191.738C23.0617 192.341 22.9764 192.955 22.8378 193.562C22.8271 193.61 22.7258 193.666 22.6512 193.684C22.5712 193.699 22.454 193.692 22.39 193.658C22.2834 193.599 22.1927 193.521 22.1181 193.44C21.8675 193.166 21.6703 192.866 21.3131 192.644C21.0252 192.467 20.828 192.248 20.652 192.019C20.2522 191.501 19.7724 191.012 19.186 190.594C18.7222 190.265 18.349 189.895 17.9865 189.521C17.1602 188.673 16.6271 187.748 16.6271 186.701C16.6271 186.571 16.6164 186.442 16.6057 186.312C16.4991 185.353 16.6377 184.417 17.0482 183.51C17.0802 183.466 17.0962 183.418 17.1229 183.37C17.1762 183.262 17.2561 183.166 17.3574 183.074C17.4321 183.007 17.3628 182.94 17.2721 182.922C17.2082 182.907 17.1282 182.914 17.0802 182.963C16.9576 183.077 16.8723 183.199 16.803 183.333C16.7497 183.44 16.659 183.514 16.6537 183.621C16.6217 183.673 16.5951 183.729 16.5737 183.784C16.1632 184.857 15.886 185.934 16.078 187.06C16.2912 188.288 16.8456 189.402 18.0611 190.328C18.2477 190.472 18.445 190.616 18.6156 190.772C19.3833 191.467 20.1563 192.163 20.9079 192.874C21.2118 193.163 21.425 193.496 21.7396 193.777C22.2354 194.221 22.5979 194.702 22.8271 195.242C22.8911 195.398 22.9871 195.546 23.0884 195.694C23.1257 195.749 23.2056 195.801 23.2856 195.827C23.3549 195.857 23.4562 195.846 23.5415 195.838Z" fill="#B3C97D"/>
<path d="M2.49416 198.148C3.45909 197.567 4.42404 196.983 5.25569 196.309C6.09267 195.635 6.82835 194.899 7.58537 194.181C8.3104 193.496 8.98746 192.826 9.43527 192.031C9.85643 191.276 10.091 190.48 10.2403 189.677C10.3202 189.233 10.3789 188.785 10.4109 188.337C10.4322 188.008 10.4215 187.675 10.2882 187.36C10.2882 187.356 10.2882 187.356 10.2829 187.353C10.2776 187.342 10.2776 187.334 10.2723 187.323C10.2669 187.312 10.2616 187.297 10.2563 187.286C10.2722 187.264 10.2829 187.242 10.2776 187.223C10.0323 186.457 9.67516 185.724 8.9448 185.106C8.73688 184.929 8.51831 184.758 8.41702 184.536C8.29974 184.273 7.95854 184.236 7.63868 184.192C7.5747 184.185 7.4361 184.244 7.43077 184.277C7.38812 184.562 7.17489 184.755 6.82836 184.895C6.58846 184.995 6.3539 185.106 6.114 185.206C5.04245 185.665 4.27475 186.302 3.74697 187.09C2.96863 188.256 2.51016 189.47 2.47284 190.761C2.45152 191.642 2.48352 192.523 2.67544 193.389C2.81938 194.04 2.81405 194.673 2.64878 195.321C2.55816 195.672 2.52616 196.031 2.48351 196.387C2.44087 196.775 2.38222 197.16 2.16365 197.53C2.09434 197.641 2.09966 197.775 2.09433 197.904C1.90241 198.063 2.25426 198.297 2.49416 198.148ZM8.12915 193.015C8.13981 192.974 8.15048 192.934 8.16114 192.893C8.20379 192.875 8.24643 192.856 8.28375 192.838C8.23577 192.897 8.18246 192.956 8.12915 193.015ZM3.15524 196.564C3.14458 196.468 3.10193 196.365 3.12858 196.272C3.28852 195.695 3.18722 195.103 3.30984 194.525C3.3898 194.166 3.3738 193.818 3.27784 193.459C3.10192 192.789 2.99531 192.108 2.99531 191.424C3.00597 190.143 3.26719 188.896 3.97622 187.704C4.504 186.816 5.21836 186.031 6.3912 185.48C6.70041 185.336 6.95632 185.139 7.23353 184.966C7.50542 184.803 7.87325 184.795 8.12381 184.962C8.43302 185.165 8.71024 185.384 8.6676 185.717C8.65693 185.806 8.69959 185.92 8.77955 185.987C9.08343 186.246 9.254 186.546 9.4246 186.849C9.47791 186.938 9.53655 187.031 9.61652 187.108C9.61652 187.134 9.62719 187.16 9.64851 187.186C9.69649 187.245 9.73382 187.308 9.76581 187.371C9.77647 187.397 9.78711 187.423 9.79777 187.449C9.8031 187.46 9.80845 187.467 9.81378 187.475C9.9204 187.749 9.92041 188.045 9.89909 188.33C9.87243 188.722 9.82444 189.114 9.75514 189.503C9.62719 190.265 9.40861 191.024 9.03544 191.746C8.84352 192.112 8.60363 192.453 8.32641 192.778C8.26244 192.808 8.19312 192.838 8.12381 192.867C8.12381 192.867 8.15047 192.882 8.1558 192.886L8.12381 192.867C8.11315 192.926 8.10248 192.986 8.09182 193.045C7.92123 193.23 7.73999 193.411 7.5534 193.593C7.47343 193.648 7.39879 193.707 7.33482 193.778C7.34548 193.774 7.35614 193.774 7.36147 193.77C7.34548 193.785 7.3348 193.796 7.31881 193.811L7.3135 193.8C7.31883 193.792 7.32949 193.785 7.33482 193.778C7.32416 193.781 7.31349 193.781 7.30283 193.785L7.30816 193.811V193.815C7.30816 193.815 7.3135 193.818 7.3135 193.822C7.30817 193.826 7.30282 193.829 7.29749 193.837C6.96696 194.148 6.6471 194.462 6.31657 194.773C6.26326 194.814 6.20994 194.862 6.17262 194.91C5.93272 195.136 5.69284 195.358 5.44228 195.576C5.40496 195.598 5.37298 195.617 5.34099 195.643C5.31434 195.661 5.30367 195.687 5.28768 195.713C5.20771 195.78 5.13306 195.846 5.05309 195.913C4.87183 196.061 4.68525 196.209 4.49866 196.35C4.49333 196.342 4.48801 196.328 4.48801 196.328C4.48268 196.339 4.48267 196.35 4.47734 196.365C4.24277 196.539 3.99753 196.709 3.74697 196.875C3.65634 196.864 3.56571 196.849 3.48042 196.835C3.28316 196.801 3.17123 196.705 3.15524 196.564Z" fill="#B3C97D"/>
</svg>
