<svg width="105" height="93" viewBox="0 0 105 93" fill="none" xmlns="http://www.w3.org/2000/svg">
<path d="M35.1475 55.1178C26.2546 58.7695 16.4532 60.1741 6.89579 59.1597C3.94706 58.8476 0.349396 57.6355 0.0223359 54.686C-0.278767 51.955 2.55576 49.8482 3.02817 47.138C3.42272 44.896 2.14563 42.4719 3.03855 40.3807C3.59923 39.075 4.86594 38.2479 5.93538 37.3168C7.00481 36.3856 7.99117 35.0383 7.66411 33.6546C7.37339 32.4166 6.12745 31.6259 5.64984 30.445C4.93342 28.6868 6.22091 26.6216 7.94965 25.8465C9.67839 25.0766 11.6719 25.2743 13.5356 25.5968C21.0891 26.8973 28.3364 29.9717 34.592 34.4765C31.9755 26.7621 24.069 21.9555 20.7673 14.5115C20.1495 13.1174 19.6978 11.5672 20.0041 10.0743C20.3156 8.58132 21.5875 7.20281 23.1086 7.21842C24.4065 7.23402 25.5953 8.20678 26.8776 8.02992C29.2033 7.7178 29.9717 4.03483 32.313 3.89437C34.3636 3.76953 35.8795 6.57337 37.8782 6.1052C39.1916 5.79828 39.7419 4.28452 40.2922 3.05166C40.8425 1.81881 42.0884 0.502715 43.324 1.04892C44.2637 1.47027 44.4973 2.71875 45.2708 3.4002C46.6206 4.60185 48.7438 3.54584 50.0832 2.32859C51.4226 1.11134 53.0008 -0.376414 54.7503 0.0865575C56.3337 0.502712 57.0605 2.30779 57.4758 3.89437C59.7029 12.3423 59.7704 21.3521 58.7737 30.1849C62.6673 22.3872 67.5524 15.0889 73.2733 8.5189C74.2649 7.38488 75.3291 6.23004 76.7256 5.66823C78.1221 5.10643 79.9443 5.31451 80.8269 6.53176C82.0572 8.23279 81.0968 11.1511 82.8307 12.3371C84.518 13.4919 87.5238 11.9366 88.5517 13.7052C89.0864 14.626 88.5777 15.7808 88.5829 16.8472C88.5984 19.4481 91.4796 20.8787 93.7171 22.1948C96.8683 24.0518 99.6873 27.6828 98.4466 31.1265C97.4446 33.8991 94.3298 35.184 91.5316 36.0787C86.1585 37.7901 80.6919 39.2207 75.4434 40.2611C86.7814 43.0389 96.9878 50.202 103.461 59.9348C104.765 61.8959 105.829 64.7726 104.095 66.3644C102.657 67.6856 100.071 67.1811 98.8203 68.6844C97.59 70.167 98.5089 72.5755 97.5017 74.2141C96.5984 75.681 94.5841 75.9151 93.1565 76.8671C89.5329 79.2859 90.0832 85.908 85.9871 87.3854C83.0955 88.431 80.2039 86.0068 78.0702 83.7908C71.664 77.1167 65.2578 70.4479 59.0333 63.727C60.2065 71.3998 59.1942 79.3952 56.1364 86.527C55.4719 88.0772 54.6828 89.6274 53.4421 90.7666C52.1961 91.9059 50.4103 92.5717 48.7906 92.0931C45.8418 91.214 44.3831 86.9692 41.3045 87.0784C40.1728 87.1201 39.1761 87.7807 38.1482 88.2437C37.1151 88.7066 35.8068 88.9459 34.9347 88.2229C33.5589 87.0889 34.3792 84.6595 33.2734 83.2654C32.2974 82.0326 30.361 82.2355 28.923 82.8649C27.485 83.4891 26.0729 84.4359 24.5051 84.3266C22.496 84.1862 20.9749 82.2458 20.6738 80.2483C20.3727 78.256 21.0113 76.2428 21.7433 74.3649C24.3701 67.6752 28.3727 61.537 35.1475 55.1178Z" fill="#F5C523"/>
<path d="M35.1475 55.1178C26.2546 58.7695 16.4532 60.1741 6.89579 59.1597C3.94706 58.8476 0.349396 57.6355 0.0223359 54.686C-0.278767 51.955 2.55576 49.8482 3.02817 47.138C3.42272 44.896 2.14563 42.4719 3.03855 40.3807C3.59923 39.075 4.86594 38.2479 5.93538 37.3168C7.00481 36.3856 7.99117 35.0383 7.66411 33.6546C7.37339 32.4166 6.12745 31.6259 5.64984 30.445C4.93342 28.6868 6.22091 26.6216 7.94965 25.8465C9.67839 25.0766 11.6719 25.2743 13.5356 25.5968C21.0891 26.8973 28.3364 29.9717 34.592 34.4765C31.9755 26.7621 24.069 21.9555 20.7673 14.5115C20.1495 13.1174 19.6978 11.5672 20.0041 10.0743C20.3156 8.58132 21.5875 7.20281 23.1086 7.21842C24.4065 7.23402 25.5953 8.20678 26.8776 8.02992C29.2033 7.7178 29.9717 4.03483 32.313 3.89437C34.3636 3.76953 35.8795 6.57337 37.8782 6.1052C39.1916 5.79828 39.7419 4.28452 40.2922 3.05166C40.8425 1.81881 42.0884 0.502715 43.324 1.04892C44.2637 1.47027 44.4973 2.71875 45.2708 3.4002C46.6206 4.60185 48.7438 3.54584 50.0832 2.32859C51.4226 1.11134 53.0008 -0.376414 54.7503 0.0865575C56.3337 0.502712 57.0605 2.30779 57.4758 3.89437C59.7029 12.3423 59.7704 21.3521 58.7737 30.1849C62.6673 22.3872 67.5524 15.0889 73.2733 8.5189C74.2649 7.38488 75.3291 6.23004 76.7256 5.66823C78.1221 5.10643 79.9443 5.31451 80.8269 6.53176C82.0572 8.23279 81.0968 11.1511 82.8307 12.3371C84.518 13.4919 87.5238 11.9366 88.5517 13.7052C89.0864 14.626 88.5777 15.7808 88.5829 16.8472C88.5984 19.4481 91.4796 20.8787 93.7171 22.1948C96.8683 24.0518 99.6873 27.6828 98.4466 31.1265C97.4446 33.8991 94.3298 35.184 91.5316 36.0787C86.1585 37.7901 80.6919 39.2207 75.4434 40.2611C86.7814 43.0389 96.9878 50.202 103.461 59.9348C104.765 61.8959 105.829 64.7726 104.095 66.3644C102.657 67.6856 100.071 67.1811 98.8203 68.6844C97.59 70.167 98.5089 72.5755 97.5017 74.2141C96.5984 75.681 94.5841 75.9151 93.1565 76.8671C89.5329 79.2859 90.0832 85.908 85.9871 87.3854C83.0955 88.431 80.2039 86.0068 78.0702 83.7908C71.664 77.1167 65.2578 70.4479 59.0333 63.727C60.2065 71.3998 59.1942 79.3952 56.1364 86.527C55.4719 88.0772 54.6828 89.6274 53.4421 90.7666C52.1961 91.9059 50.4103 92.5717 48.7906 92.0931C45.8418 91.214 44.3831 86.9692 41.3045 87.0784C40.1728 87.1201 39.1761 87.7807 38.1482 88.2437C37.1151 88.7066 35.8068 88.9459 34.9347 88.2229C33.5589 87.0889 34.3792 84.6595 33.2734 83.2654C32.2974 82.0326 30.361 82.2355 28.923 82.8649C27.485 83.4891 26.0729 84.4359 24.5051 84.3266C22.496 84.1862 20.9749 82.2458 20.6738 80.2483C20.3727 78.256 21.0113 76.2428 21.7433 74.3649C24.3701 67.6752 28.3727 61.537 35.1475 55.1178Z" fill="#47BABF"/>
<path d="M59.5364 42.3007C55.6997 41.0814 51.4897 40.9631 47.5389 41.74C46.5953 41.9252 45.6465 42.203 44.8688 42.7638C44.0911 43.3246 43.5 44.2094 43.5 45.1664C43.5 46.7767 45.0658 47.9137 46.5227 48.6185C51.0438 50.7999 56.27 51.515 61.2215 50.6301C62.8961 50.3317 64.8041 49.5908 65.193 47.9497C65.4678 46.7972 64.9286 44.0242 59.5312 42.311L59.5364 42.3007Z" fill="#255A81"/>
</svg>
