<svg width="59" height="54" viewBox="0 0 59 54" fill="none" xmlns="http://www.w3.org/2000/svg">
<path d="M19.0894 13.8032C19.0894 13.8032 18.9443 18.7713 25.3607 26.7435C31.7771 34.7157 46.172 30.3461 52.2865 24.5877C58.401 18.8294 59.0456 16.0287 58.7378 15.6335C56.1886 12.3854 39.2098 15.5406 41.5266 18.6958C45.1442 18.1612 45.092 1.14761 41.968 1.2464C41.486 1.26383 33.3217 3.93093 31.6087 8.46323C29.8958 12.9897 30.6216 17.9868 30.6216 17.9868C30.6216 17.9868 32.1313 11.3104 26.9575 6.10989C21.7837 0.909376 22.3702 -0.194628 21.1566 0.0261761C19.9488 0.24117 17.7887 6.76649 19.0894 13.8032Z" fill="#88A163"/>
<path d="M12.2665 23.844C12.2665 23.844 13.7182 29.4396 23.0844 35.7383C32.4507 42.0371 46.2475 31.3455 50.8464 22.4552C55.4453 13.5649 55.2189 10.1774 54.7659 9.86358C51.0206 7.27204 34.094 17.6498 37.5664 20.2356C41.2188 18.1786 35.6502 -0.769883 32.381 0.601427C31.8758 0.810609 24.1122 7.0919 23.7754 12.8328C23.4328 18.5737 25.8194 23.8556 25.8194 23.8556C25.8194 23.8556 25.2503 15.7963 18.1022 12.0949C10.9541 8.39351 11.2096 6.9176 10.0018 7.65555C8.77662 8.37607 8.60824 16.5226 12.2665 23.844Z" fill="#6C7B4A"/>
<path d="M45.3823 47.1446C45.2778 46.8424 45.1384 46.5519 45.0223 46.2497C51.4097 39.6489 49.7548 26.3541 49.7548 26.3541C45.6146 22.217 15.3673 23.902 12.2665 26.3541C12.2665 28.8527 11.8833 41.7058 18.9791 47.1272C19.0372 47.1736 19.1127 47.1969 19.1707 47.2434C19.1127 47.348 19.0546 47.4467 18.9965 47.5455C18.8165 47.8651 18.6946 48.2079 18.561 48.5566C18.6481 48.3358 18.7352 48.1092 18.8223 47.8883C18.6481 48.3241 18.4739 48.7658 18.2939 49.2016C18.0965 49.7013 17.8816 50.1661 17.8874 50.7298C17.8932 50.9099 17.9107 51.0958 17.9223 51.276C17.9745 52.1069 18.5262 52.7983 19.3275 52.8042C19.4959 52.8042 19.6643 52.8157 19.8385 52.8099C20.3901 52.7983 20.8373 52.5427 21.3134 52.2812C21.7141 52.0604 22.167 51.8686 22.5328 51.5897C22.9103 51.2992 23.2877 51.0145 23.6651 50.7298C23.9903 50.4799 24.3387 50.1835 24.6639 49.8698C29.4428 51.2643 34.9128 51.0319 39.2214 49.6374C39.233 49.6548 39.2446 49.6664 39.2562 49.6838C39.2446 49.6664 39.233 49.6548 39.2272 49.6374C39.2272 49.6374 39.2272 49.6374 39.233 49.6374C39.6627 50.2417 40.1098 50.8343 40.644 51.3282C41.0621 51.7117 41.4454 52.1301 41.8983 52.4729C42.0144 52.5601 42.1305 52.6415 42.2467 52.7286C42.5777 52.9785 42.9609 53.0889 43.35 53.1237C43.4777 53.147 43.6055 53.1818 43.71 53.1818C43.8668 53.176 44.0177 53.1179 44.1687 53.0772C44.1745 53.0772 44.1861 53.0772 44.1919 53.0772H44.1745C44.3603 53.0249 44.5345 52.9436 44.7029 52.839L44.6971 52.8448C44.7029 52.839 44.7087 52.8332 44.7087 52.8332C44.8365 52.746 44.9758 52.6821 45.0862 52.5601C45.1907 52.4497 45.2487 52.3335 45.3242 52.2231C45.3417 52.1999 45.3591 52.1708 45.3823 52.1417C45.4288 52.0546 45.4752 51.9616 45.5159 51.8686C45.6088 51.6943 45.7249 51.5374 45.7772 51.3341C45.8527 51.0319 45.8585 50.6891 45.8817 50.3695C45.9165 49.8407 45.841 49.3643 45.7714 48.8355C45.6843 48.2428 45.5739 47.7082 45.3823 47.1446Z" fill="#644C3B"/>
<path d="M15.4196 19.0734C9.71736 14.5644 5.37391 16.1565 1.79697 16.5226C-1.77998 16.8945 0.943378 18.7422 1.79697 20.4099C2.65056 22.0775 5.88492 27.8185 15.9306 25.9649C25.9762 24.1113 17.4868 20.7062 15.4196 19.0734Z" fill="#88A163"/>
<path d="M18.3171 33.1934C18.1952 29.1492 16.9526 23.5361 21.0405 21.514C25.1284 19.4919 32.0733 21.4385 32.9211 23.8441C33.4785 25.4188 29.7274 32.0836 21.7199 33.1934C19.223 33.5362 18.3984 35.9418 18.3171 33.1934Z" fill="#88A163"/>
<path d="M33.1533 20.0903C28.2931 21.4675 31.4229 27.2665 34.9999 29.1201C38.5768 30.9737 41.6428 35.9708 42.4963 33.5652C43.3499 31.1596 49.5864 26.2554 44.819 22.6412C40.0517 19.027 38.42 18.597 33.1533 20.0903Z" fill="#88A163"/>
</svg>
