<svg width="90" height="116" viewBox="0 0 90 116" fill="none" xmlns="http://www.w3.org/2000/svg">
<path d="M35.6874 54.6666C35.6874 54.6666 29.2454 38.8774 26.1 25.2167C22.9546 11.556 21.969 2.44736 19.4579 0.873359C16.9469 -0.700643 13.0047 -0.0612078 12.7102 2.85427C12.4156 5.76975 14.4849 12.7678 12.7102 13.3536C10.9354 13.9393 8.96811 11.7214 6.84975 12.7723C3.39845 14.4804 0.694801 25.722 2.17123 30.1533C3.64766 34.5847 30.5406 58.9638 30.5406 58.9638L28.3732 63.3952C28.3732 63.3952 8.17891 47.53 5.22605 46.5954C2.27319 45.6609 -1.47265 54.4118 0.596624 57.3272C2.66589 60.2427 9.95365 60.9447 10.252 63.3952C10.5503 65.8456 4.83334 65.8456 2.86225 67.4778C0.891155 69.1099 -0.347386 79.5242 2.56772 81.9434C7.49167 86.0259 29.8534 71.5603 29.8534 71.5603L32.2172 76.81C32.2172 76.81 16.5542 91.8569 12.3175 96.9903C8.08074 102.124 9.36081 108.889 11.5283 112.153C13.6957 115.418 17.2414 116.938 20.3944 115.301C23.5474 113.665 26.8967 107.718 30.737 108.885C34.5772 110.052 35.8611 112.851 39.5049 115.185C43.1488 117.519 46.9928 114.72 45.6108 108.303C44.2326 101.887 37.632 86.0215 37.5339 79.3722L42.556 76.9218C42.556 76.9218 50.7311 103.17 56.1497 109.582C61.5684 115.999 64.8195 115.65 71.1217 111.447C77.4277 107.248 78.2131 103.747 75.7512 97.2139C73.2892 90.6809 74.2747 87.7654 79.0023 87.1841C83.7299 86.6028 87.1775 87.1841 89.0504 80.4186C90.9233 73.653 90.2323 63.0374 85.112 59.5362C79.9917 56.0349 61.372 53.8796 45.8072 63.1537L44.0324 58.0114C44.0324 58.0114 55.8514 46.1259 62.5501 37.9608C69.2488 29.7956 70.1362 21.7468 66.4885 17.7805C62.8447 13.8142 59.0006 18.9475 53.4876 16.8459C47.9708 14.7442 46.4529 12.6471 44.9953 9.02954C43.5378 5.41202 42.9638 0.515625 38.4174 0.0282208C33.1461 -0.5352 31.4242 7.39741 32.6061 18.478C33.788 29.5586 39.6975 54.4073 39.6975 54.4073L35.6836 54.6577L35.6874 54.6666Z" fill="#F5C523"/>
<path d="M34.2686 54.0045C25.0167 54.2086 17.6535 65.0172 22.5754 73.9766C28.9899 85.6529 44.1471 81.4009 47.3239 71.2126C49.9176 62.901 44.9392 53.7689 34.2686 54.0045Z" fill="#EE6E40"/>
</svg>
